<svg width="257" height="226" viewBox="0 0 257 226" fill="none" xmlns="http://www.w3.org/2000/svg">
<path d="M37.6354 208.742C87.8196 231.36 169.18 231.367 219.365 208.742C269.549 186.117 269.542 149.448 219.365 126.829C169.188 104.211 87.8196 104.211 37.6354 126.829C-12.5488 149.448 -12.5415 186.123 37.6354 208.742Z" fill="#F5F5F5"/>
<path d="M219.19 192.026C228.432 192.026 235.925 188.649 235.925 184.484C235.925 180.319 228.432 176.942 219.19 176.942C209.947 176.942 202.454 180.319 202.454 184.484C202.454 188.649 209.947 192.026 219.19 192.026Z" fill="#EBEBEB"/>
<path d="M33.8265 185.566L39.7472 182.335C43.0529 179.784 45.569 176.436 47.0298 172.645C48.8577 167.879 48.6028 164.256 47.2919 162.438C45.6825 160.199 41.5096 160.592 41.3421 165.303C40.9925 174.587 38.1305 181.027 33.8265 185.566Z" fill="#90CAF9"/>
<path opacity="0.2" d="M33.8265 185.566L39.7472 182.335C43.0529 179.784 45.569 176.436 47.0298 172.645C48.8577 167.879 48.6028 164.256 47.2919 162.438C45.6825 160.199 41.5096 160.592 41.3421 165.303C40.9925 174.587 38.1305 181.027 33.8265 185.566Z" fill="black"/>
<path d="M33.8266 185.909C33.7495 185.909 33.6747 185.885 33.613 185.841C33.5512 185.797 33.5058 185.736 33.4831 185.666C33.4604 185.597 33.4617 185.522 33.4868 185.453C33.5119 185.384 33.5595 185.324 33.6227 185.283C47.314 176.329 44.6631 163.842 44.634 163.718C44.6239 163.673 44.6234 163.626 44.6324 163.581C44.6415 163.535 44.6598 163.492 44.6866 163.453C44.7133 163.415 44.7478 163.381 44.7881 163.355C44.8284 163.329 44.8738 163.311 44.9216 163.301C44.9695 163.292 45.0188 163.291 45.0668 163.3C45.1148 163.309 45.1606 163.326 45.2015 163.351C45.2424 163.376 45.2777 163.409 45.3053 163.447C45.3328 163.485 45.3522 163.528 45.3622 163.574C45.3622 163.704 48.1587 176.618 34.0597 185.847C33.9913 185.892 33.9094 185.913 33.8266 185.909Z" fill="white"/>
<path d="M21.9633 192.046C21.9633 192.046 19.9023 190.462 20.3975 188.313C20.8927 186.164 22.2254 184.622 19.946 181.853C17.6666 179.084 17.033 175.392 19.7567 173.395C21.8322 171.845 25.0729 174.036 26.2381 169.951C27.0975 166.962 26.8062 160.343 30.8334 158.139C34.8607 155.935 37.3878 159.255 36.7542 163.746C36.2007 167.761 35.4142 171.625 36.0259 172.699C37.2057 174.766 39.223 174.483 39.1283 178.258C39.0482 181.77 35.5307 184.677 35.5307 184.677L21.9633 192.046Z" fill="#90CAF9"/>
<path d="M28.7287 188.679C28.6397 188.678 28.554 188.647 28.4871 188.591C28.4203 188.536 28.3768 188.459 28.3646 188.376C27.3232 180.214 29.8211 166.122 31.8602 161.935C31.8774 161.888 31.9049 161.846 31.9408 161.81C31.9768 161.775 32.0204 161.747 32.0687 161.729C32.117 161.71 32.1689 161.702 32.2209 161.704C32.2728 161.707 32.3237 161.72 32.37 161.742C32.4135 161.761 32.4526 161.787 32.485 161.82C32.5174 161.853 32.5425 161.892 32.5588 161.934C32.5751 161.977 32.5823 162.022 32.5799 162.067C32.5774 162.112 32.5655 162.156 32.5448 162.197C30.5275 166.329 28.117 180.462 29.1147 188.266C29.1249 188.356 29.097 188.446 29.037 188.517C28.9769 188.588 28.8897 188.634 28.7942 188.644L28.7287 188.679Z" fill="white"/>
<path d="M28.5322 182.322C28.4765 182.324 28.4211 182.312 28.372 182.287C25.8449 181.123 24.2427 176.97 24.1772 176.777C24.1594 176.734 24.1508 176.689 24.152 176.643C24.1532 176.597 24.1641 176.551 24.1841 176.509C24.2042 176.467 24.2329 176.43 24.2686 176.398C24.3044 176.367 24.3463 176.343 24.3921 176.327C24.4379 176.312 24.4865 176.305 24.5352 176.307C24.5838 176.31 24.6314 176.321 24.6752 176.341C24.719 176.361 24.758 176.39 24.7901 176.424C24.8221 176.459 24.8465 176.499 24.8618 176.543C24.8618 176.584 26.4275 180.607 28.6924 181.647C28.7667 181.681 28.8266 181.738 28.8622 181.808C28.8978 181.878 28.907 181.958 28.8884 182.034C28.8698 182.11 28.8244 182.178 28.7597 182.227C28.6949 182.275 28.6147 182.301 28.5322 182.301V182.322Z" fill="white"/>
<path d="M28.4884 185.076C28.4154 185.076 28.3442 185.055 28.2843 185.016C28.2244 184.976 28.1787 184.921 28.1534 184.856C28.1172 184.772 28.1175 184.678 28.1543 184.594C28.1911 184.51 28.2615 184.443 28.35 184.408C32.6031 182.797 35.2539 178.01 35.283 177.955C35.3275 177.873 35.4042 177.812 35.4964 177.784C35.5886 177.757 35.6887 177.765 35.7746 177.807C35.8606 177.849 35.9253 177.921 35.9547 178.008C35.9841 178.096 35.9756 178.19 35.9312 178.271C35.8147 178.478 33.1274 183.341 28.6486 185.049C28.5987 185.071 28.5434 185.081 28.4884 185.076Z" fill="white"/>
<path d="M177.147 148.022C177.147 148.022 173.965 143.146 173.652 137.849C173.339 132.553 174.569 130.349 176.259 129.715C177.949 129.081 178.08 131.031 178.946 132.181C179.813 133.331 181.583 132.677 182.238 129.088C182.893 125.5 185.282 119.446 190.249 118.268C195.711 116.987 192.783 123.048 191.407 125.41C190.03 127.773 188.967 130.996 189.87 131.871C190.773 132.746 192.179 131.127 193.511 132.628C195.135 134.44 190.089 140.962 187.19 142.539L177.147 148.022Z" fill="#90CAF9"/>
<path d="M181.51 145.976C181.462 145.975 181.415 145.964 181.371 145.945C181.328 145.926 181.289 145.899 181.256 145.866C181.224 145.833 181.199 145.794 181.182 145.751C181.166 145.709 181.158 145.663 181.16 145.618C181.653 137.098 184.463 128.843 189.317 121.65C189.344 121.612 189.379 121.581 189.42 121.556C189.461 121.532 189.507 121.516 189.554 121.509C189.602 121.502 189.651 121.504 189.697 121.515C189.744 121.526 189.788 121.546 189.826 121.574C189.903 121.628 189.954 121.708 189.969 121.796C189.984 121.885 189.961 121.976 189.906 122.049C185.139 129.137 182.381 137.265 181.896 145.653C181.893 145.698 181.881 145.742 181.86 145.783C181.839 145.824 181.81 145.86 181.774 145.89C181.738 145.92 181.696 145.943 181.651 145.958C181.605 145.973 181.558 145.979 181.51 145.976Z" fill="white"/>
<path d="M181.925 141.906C181.864 141.905 181.804 141.891 181.75 141.864C179.711 140.797 178.582 137.629 178.539 137.498C178.522 137.455 178.516 137.409 178.518 137.364C178.521 137.318 178.533 137.274 178.554 137.233C178.575 137.192 178.604 137.155 178.641 137.125C178.677 137.095 178.719 137.072 178.764 137.057C178.856 137.029 178.956 137.036 179.042 137.077C179.128 137.119 179.193 137.191 179.223 137.277C179.223 137.277 180.315 140.328 182.136 141.258C182.219 141.304 182.279 141.379 182.305 141.466C182.331 141.553 182.32 141.647 182.274 141.727C182.242 141.786 182.191 141.835 182.129 141.866C182.066 141.898 181.995 141.912 181.925 141.906Z" fill="white"/>
<path d="M182.282 139.819C182.201 139.819 182.123 139.793 182.06 139.745C181.996 139.698 181.952 139.632 181.932 139.558C181.92 139.514 181.918 139.469 181.924 139.425C181.931 139.38 181.947 139.338 181.972 139.299C181.996 139.261 182.028 139.227 182.067 139.201C182.105 139.174 182.148 139.155 182.194 139.145C187.452 137.884 189.273 135.281 189.288 135.253C189.313 135.215 189.347 135.181 189.386 135.155C189.426 135.129 189.47 135.111 189.517 135.101C189.564 135.091 189.613 135.09 189.66 135.097C189.708 135.105 189.753 135.122 189.794 135.146C189.834 135.171 189.87 135.203 189.897 135.24C189.925 135.277 189.945 135.319 189.955 135.364C189.965 135.408 189.967 135.454 189.958 135.499C189.95 135.544 189.932 135.587 189.907 135.625C189.827 135.742 187.933 138.476 182.376 139.813L182.282 139.819Z" fill="white"/>
<path d="M97.9132 137.319C97.9132 137.319 90.9292 135.707 90.5651 123.338C90.1791 109.99 92.2765 94.4104 84.0108 93.15C75.7451 91.8896 71.157 101.415 71.259 112.538C71.3537 122.277 75.5047 143.421 97.8841 147.568L97.9132 137.319Z" fill="#90CAF9"/>
<path opacity="0.2" d="M97.9132 137.319C97.9132 137.319 90.9292 135.707 90.5651 123.338C90.1791 109.99 92.2765 94.4104 84.0108 93.15C75.7451 91.8896 71.157 101.415 71.259 112.538C71.3537 122.277 75.5047 143.421 97.8841 147.568L97.9132 137.319Z" fill="black"/>
<path d="M97.9132 146.301H97.8477C92.8154 145.433 88.7153 142.809 85.6639 138.511C76.619 125.748 79.4665 101.918 80.4059 97.7578C80.4269 97.6692 80.4834 97.5917 80.5635 97.5416C80.6436 97.4915 80.7412 97.4728 80.8356 97.4892C80.9299 97.5106 81.0119 97.5654 81.0647 97.6423C81.1176 97.7192 81.1372 97.8123 81.1196 97.9024C80.1947 102.035 77.3618 125.562 86.2684 138.125C87.5648 140.073 89.2753 141.745 91.2912 143.035C93.307 144.325 95.5844 145.205 97.9788 145.619C98.0263 145.627 98.0716 145.644 98.112 145.669C98.1525 145.694 98.1873 145.726 98.2144 145.764C98.2415 145.802 98.2604 145.844 98.27 145.889C98.2795 145.934 98.2796 145.98 98.2701 146.025C98.2546 146.103 98.2103 146.174 98.1449 146.225C98.0796 146.275 97.9975 146.302 97.9132 146.301Z" fill="white"/>
<path d="M97.9131 178.044C90.6961 178.967 78.9784 178.953 72.2129 173.912C65.4474 168.87 66.8602 164.531 69.4601 162.72C72.06 160.908 74.3176 158.842 69.8461 154.82C65.3746 150.797 58.194 144.337 55.8636 134.646C53.5331 124.956 54.6838 118.895 59.2572 116.877C63.6923 114.921 64.8648 118.034 67.5812 124.453C70.2976 130.872 76.4077 125.369 81.6366 127.373C86.8655 129.378 86.6543 133.345 86.982 136.754C87.3097 140.163 89.0357 141.107 91.9997 141.107C94.9637 141.107 97.9131 142.718 97.9131 145.928V178.044Z" fill="#90CAF9"/>
<path d="M97.9131 166.791C97.8819 166.797 97.8496 166.797 97.8184 166.791C97.5053 166.708 90.0407 164.656 79.1678 155.213C67.5885 145.157 62.1266 130.074 62.0683 129.922C62.0404 129.835 62.0491 129.742 62.0925 129.661C62.136 129.58 62.2108 129.518 62.3014 129.488C62.3922 129.46 62.4912 129.466 62.5771 129.506C62.6629 129.546 62.7287 129.616 62.7602 129.702C62.8111 129.853 68.2221 144.772 79.663 154.703C90.3829 164.022 97.935 166.109 98.0151 166.129C98.061 166.142 98.1038 166.163 98.1411 166.192C98.1784 166.22 98.2094 166.255 98.2324 166.295C98.2554 166.334 98.2699 166.378 98.2751 166.423C98.2803 166.468 98.2761 166.513 98.2627 166.557C98.2391 166.626 98.1922 166.687 98.1292 166.729C98.0662 166.771 97.9903 166.793 97.9131 166.791Z" fill="white"/>
<path d="M82.2046 157.61C82.1314 157.611 82.0597 157.59 81.9996 157.551C81.9394 157.511 81.894 157.455 81.8696 157.389C79.5319 151.714 79.0003 139.571 78.9566 139.055C78.9545 138.964 78.9898 138.876 79.055 138.809C79.1202 138.742 79.2102 138.702 79.3061 138.697C79.4012 138.698 79.4925 138.733 79.5624 138.794C79.6323 138.855 79.6759 138.938 79.6848 139.027C79.6848 139.151 80.231 151.569 82.525 157.141C82.5426 157.184 82.551 157.229 82.5499 157.275C82.5487 157.32 82.538 157.365 82.5184 157.407C82.4987 157.449 82.4705 157.486 82.4354 157.517C82.4003 157.549 82.359 157.573 82.3138 157.589C82.2787 157.601 82.2419 157.608 82.2046 157.61Z" fill="white"/>
<path d="M82.1464 165.771C81.475 165.776 80.8038 165.744 80.1364 165.675C80.0886 165.669 80.0424 165.655 80.0004 165.632C79.9584 165.61 79.9215 165.58 79.8917 165.544C79.862 165.509 79.84 165.468 79.827 165.424C79.814 165.38 79.8102 165.334 79.816 165.289C79.8217 165.244 79.8368 165.2 79.8604 165.16C79.884 165.12 79.9156 165.086 79.9535 165.057C79.9914 165.029 80.0347 165.008 80.0811 164.996C80.1275 164.984 80.176 164.98 80.2238 164.986C80.2893 164.986 87.0694 165.716 90.1791 162.72C90.2114 162.684 90.2514 162.654 90.2964 162.633C90.3414 162.612 90.3905 162.6 90.4407 162.598C90.4908 162.596 90.5408 162.604 90.5877 162.621C90.6345 162.638 90.6772 162.663 90.7129 162.697C90.7486 162.73 90.7767 162.77 90.7953 162.814C90.814 162.858 90.8228 162.905 90.8212 162.953C90.8196 163 90.8077 163.047 90.7862 163.09C90.7646 163.133 90.734 163.171 90.6961 163.202C88.4458 165.399 84.5205 165.771 82.1464 165.771Z" fill="white"/>
<path d="M105.108 187.259L173.564 149.874C173.715 149.824 173.846 149.731 173.938 149.608C174.031 149.484 174.08 149.337 174.08 149.186C174.08 149.034 174.031 148.887 173.938 148.764C173.846 148.64 173.715 148.547 173.564 148.497L167.236 145.053C166.844 144.867 166.411 144.77 165.972 144.77C165.534 144.77 165.101 144.867 164.709 145.053L96.2309 182.404C96.0801 182.454 95.9494 182.547 95.857 182.671C95.7646 182.794 95.715 182.941 95.715 183.093C95.715 183.244 95.7646 183.391 95.857 183.515C95.9494 183.638 96.0801 183.731 96.2309 183.781L102.581 187.225C102.97 187.417 103.402 187.52 103.84 187.526C104.279 187.532 104.714 187.441 105.108 187.259Z" fill="#E0E0E0"/>
<path d="M171.685 5.53437L109.958 39.2415C109.041 39.8079 108.277 40.5706 107.729 41.4681C107.182 42.3655 106.865 43.3724 106.805 44.4071V182.893C106.805 184.794 108.218 185.565 109.958 184.615L171.685 150.908C172.604 150.343 173.369 149.58 173.917 148.682C174.465 147.785 174.781 146.777 174.839 145.742V7.25623C174.839 5.3553 173.433 4.5839 171.685 5.53437Z" fill="#455A64"/>
<path d="M109.959 39.2416L171.686 5.53447C173.244 4.68043 174.533 5.21076 174.795 6.69156C174.65 5.76055 174.297 4.86924 173.761 4.07627C173.225 3.28329 172.518 2.60661 171.686 2.09075L169.122 0.713263C168.145 0.244366 167.065 0 165.969 0C164.873 0 163.793 0.244366 162.815 0.713263L101.081 34.3929C100.151 34.9443 99.3845 35.7097 98.8526 36.6175L107.73 41.4387C108.262 40.5381 109.029 39.7815 109.959 39.2416Z" fill="#37474F"/>
<path d="M97.9131 178.044C97.9729 179.079 98.2896 180.086 98.8374 180.983C99.3853 181.881 100.149 182.643 101.067 183.21L103.637 184.587C104.527 185.008 105.501 185.247 106.495 185.287C107.489 185.327 108.48 185.169 109.405 184.821C107.949 185.359 106.791 184.567 106.791 182.865V44.4072C106.827 43.3681 107.146 42.3553 107.715 41.4662L98.838 36.645C98.2761 37.5274 97.958 38.5293 97.9131 39.5584V178.044Z" fill="#263238"/>
<path d="M111.655 57.6936L170.011 25.8391C171.059 25.2744 171.904 25.7358 171.904 26.8723V129.371C171.869 129.992 171.679 130.597 171.35 131.136C171.021 131.674 170.562 132.132 170.011 132.471L111.677 164.325C110.629 164.897 109.784 164.435 109.784 163.292V60.7929C109.817 60.1737 110.004 59.5705 110.329 59.0321C110.654 58.4937 111.108 58.0352 111.655 57.6936Z" fill="white"/>
<path d="M140.822 27.6359C140.5 27.8359 140.232 28.1046 140.04 28.4205C139.848 28.7363 139.736 29.0904 139.715 29.4542C139.715 30.143 140.21 30.3978 140.822 30.0603C141.146 29.8616 141.414 29.5931 141.607 29.2771C141.799 28.961 141.91 28.6063 141.929 28.242C141.929 27.574 141.434 27.3053 140.822 27.6359Z" fill="#37474F"/>
<path d="M140.822 153.298C139.549 154.085 138.49 155.145 137.731 156.392C136.972 157.639 136.534 159.038 136.453 160.474C136.453 163.112 138.412 164.187 140.822 162.864C142.095 162.076 143.154 161.016 143.913 159.769C144.672 158.522 145.11 157.124 145.192 155.687C145.206 153.05 143.24 151.975 140.822 153.298Z" fill="#37474F"/>
<path d="M130.343 38.2979C129.703 38.6997 129.171 39.2381 128.792 39.8698C128.412 40.5015 128.195 41.2087 128.158 41.9344C128.158 43.2706 129.148 43.8147 130.343 43.1466C130.989 42.7486 131.528 42.2118 131.914 41.5799C132.3 40.9479 132.522 40.2388 132.564 39.51C132.564 38.1739 131.573 37.6298 130.343 38.2979Z" fill="#37474F"/>
<path d="M135.783 37.8438C135.783 38.7392 136.511 39.0767 137.363 38.6015L151.928 30.6327C152.379 30.3662 152.757 30.0028 153.032 29.5719C153.307 29.1411 153.47 28.655 153.508 28.1532C153.508 27.2647 152.78 26.9272 151.928 27.4025L137.363 35.3713C136.913 35.6371 136.535 35.9994 136.26 36.429C135.986 36.8586 135.822 37.3433 135.783 37.8438Z" fill="#37474F"/>
<path d="M102.836 62.1285C103.353 62.4469 103.783 62.876 104.092 63.3809C104.401 63.8859 104.579 64.4526 104.613 65.035C104.613 66.1095 103.819 66.5434 102.836 66.0062C102.321 65.6866 101.893 65.2571 101.585 64.7523C101.278 64.2474 101.1 63.6813 101.067 63.0997C101.067 62.0321 101.86 61.5982 102.836 62.1285Z" fill="#37474F"/>
<path d="M102.836 75.0634C103.353 75.3818 103.783 75.8109 104.092 76.3159C104.401 76.8208 104.579 77.3875 104.613 77.9699C104.613 79.0375 103.819 79.4714 102.836 78.9411C102.321 78.6215 101.893 78.192 101.585 77.6872C101.278 77.1823 101.1 76.6163 101.067 76.0346C101.067 74.9601 101.86 74.5262 102.836 75.0634Z" fill="#37474F"/>
<path d="M102.283 62.3903C102.8 62.7087 103.23 63.1377 103.538 63.6427C103.847 64.1477 104.026 64.7144 104.06 65.2968C104.06 66.3644 103.266 66.7983 102.283 66.2679C101.766 65.9496 101.336 65.5205 101.027 65.0155C100.718 64.5106 100.54 63.9439 100.506 63.3614C100.513 62.287 101.307 61.8738 102.283 62.3903Z" fill="#455A64"/>
<path d="M102.283 75.318C102.801 75.637 103.231 76.0672 103.54 76.5734C103.849 77.0797 104.027 77.6477 104.06 78.2314C104.06 79.2989 103.266 79.7328 102.283 79.1956C101.765 78.8785 101.334 78.4497 101.025 77.9444C100.716 77.4392 100.538 76.8719 100.506 76.2891C100.513 75.2215 101.307 74.7876 102.283 75.318Z" fill="#455A64"/>
<path d="M183.716 30.1158C183.716 28.9725 182.872 28.511 181.823 29.0827L174.839 32.8914L123.49 60.9371C122.938 61.276 122.479 61.7334 122.15 62.2721C121.821 62.8107 121.631 63.4153 121.596 64.0364V166.508C121.596 167.651 122.441 168.113 123.49 167.541L174.861 139.488L181.823 135.687C182.375 135.348 182.834 134.89 183.163 134.352C183.492 133.813 183.681 133.208 183.716 132.587V30.1158Z" fill="white"/>
<path d="M184.445 30.116C184.491 29.7706 184.428 29.4201 184.264 29.1083C184.1 28.7965 183.843 28.5373 183.524 28.3631C183.206 28.1889 182.84 28.1074 182.472 28.1289C182.105 28.1503 181.752 28.2737 181.459 28.4837L174.795 32.1271L123.125 60.3656C122.46 60.7627 121.907 61.3069 121.514 61.9513C121.12 62.5956 120.899 63.3208 120.868 64.0642V166.508C120.839 166.852 120.909 167.197 121.07 167.506C121.232 167.815 121.479 168.077 121.785 168.264C122.046 168.408 122.343 168.481 122.645 168.478C123.072 168.465 123.488 168.349 123.854 168.14L175.56 139.902L182.209 136.272C182.87 135.871 183.421 135.326 183.813 134.683C184.206 134.039 184.43 133.316 184.467 132.574L184.445 30.116ZM174.81 138.724L174.213 139.055L123.155 166.935C123.069 166.997 122.969 167.041 122.864 167.062C122.758 167.084 122.648 167.083 122.543 167.059C122.448 167.004 122.354 166.811 122.354 166.494V64.0366C122.391 63.5366 122.548 63.0511 122.813 62.6168C123.078 62.1826 123.444 61.8108 123.883 61.5296L174.89 33.6355L182.173 29.6476C182.258 29.5853 182.358 29.5418 182.464 29.5204C182.569 29.4989 182.679 29.5 182.784 29.5237C182.879 29.5788 182.974 29.7716 182.974 30.0884V132.587C182.936 133.087 182.779 133.573 182.514 134.007C182.249 134.441 181.883 134.813 181.444 135.094L174.795 138.724H174.81Z" fill="#90CAF9"/>
<path d="M152.656 53.9258C159.211 50.3581 164.49 53.2371 164.49 60.3932C164.49 67.5492 159.189 76.2343 152.656 79.7744C146.124 83.3146 140.822 80.4632 140.822 73.314C140.822 66.1648 146.124 57.5004 152.656 53.9258Z" fill="#90CAF9"/>
<path d="M152.656 59.5459C154.775 58.3888 156.494 59.3255 156.494 61.6121C156.422 62.8718 156.037 64.0977 155.37 65.1903C154.703 66.2828 153.774 67.2113 152.656 67.9003C150.537 69.0574 148.818 68.1207 148.818 65.8341C148.89 64.5744 149.275 63.3485 149.942 62.256C150.609 61.1634 151.539 60.2349 152.656 59.5459Z" fill="#90CAF9"/>
<path d="M160.135 71.8884C160.135 68.0866 157.317 66.5438 153.829 68.4447L151.644 69.6363C148.163 71.5372 145.337 76.1655 145.337 79.9674V80.9936C147.355 81.6204 149.889 81.2829 152.62 79.7746C155.645 78.0097 158.203 75.6138 160.099 72.77L160.135 71.8884Z" fill="#90CAF9"/>
<path opacity="0.7" d="M152.656 59.5459C154.775 58.3888 156.494 59.3255 156.494 61.6121C156.422 62.8718 156.037 64.0977 155.37 65.1903C154.703 66.2828 153.774 67.2113 152.656 67.9003C150.537 69.0574 148.818 68.1207 148.818 65.8341C148.89 64.5744 149.275 63.3485 149.942 62.256C150.609 61.1634 151.539 60.2349 152.656 59.5459Z" fill="white"/>
<path opacity="0.7" d="M160.135 71.8884C160.135 68.0866 157.317 66.5438 153.829 68.4447L151.644 69.6363C148.163 71.5372 145.337 76.1655 145.337 79.9674V80.9936C147.355 81.6204 149.889 81.2829 152.62 79.7746C155.645 78.0097 158.203 75.6138 160.099 72.77L160.135 71.8884Z" fill="white"/>
<path d="M129.76 95.5122L144.988 87.199C145.716 86.8202 146.248 87.1233 146.248 87.8878V88.363C146.225 88.7769 146.098 89.1798 145.879 89.5389C145.661 89.898 145.355 90.2031 144.988 90.4293L129.76 98.7424C129.068 99.1212 128.5 98.8113 128.5 98.0537V97.5784C128.524 97.1646 128.65 96.7619 128.869 96.4029C129.088 96.044 129.393 95.7388 129.76 95.5122Z" fill="#90CAF9"/>
<path opacity="0.1" d="M129.76 95.5122L144.988 87.199C145.716 86.8202 146.248 87.1233 146.248 87.8878V88.363C146.225 88.7769 146.098 89.1798 145.879 89.5389C145.661 89.898 145.355 90.2031 144.988 90.4293L129.76 98.7424C129.068 99.1212 128.5 98.8113 128.5 98.0537V97.5784C128.524 97.1646 128.65 96.7619 128.869 96.4029C129.088 96.044 129.393 95.7388 129.76 95.5122Z" fill="black"/>
<path d="M129.134 105.547L175.203 80.3941C175.545 80.2013 175.829 80.3528 175.829 80.7385V85.8214C175.817 86.0277 175.753 86.2284 175.645 86.4076C175.536 86.5869 175.385 86.7399 175.203 86.8546L129.134 112.008C128.784 112.2 128.5 112.042 128.5 111.663V106.58C128.513 106.373 128.576 106.172 128.686 105.992C128.797 105.813 128.95 105.66 129.134 105.547Z" fill="#90CAF9"/>
<path opacity="0.2" d="M129.134 105.547L175.203 80.3941C175.545 80.2013 175.829 80.3528 175.829 80.7385V85.8214C175.817 86.0277 175.753 86.2284 175.645 86.4076C175.536 86.5869 175.385 86.7399 175.203 86.8546L129.134 112.008C128.784 112.2 128.5 112.042 128.5 111.663V106.58C128.513 106.373 128.576 106.172 128.686 105.992C128.797 105.813 128.95 105.66 129.134 105.547Z" fill="white"/>
<path d="M129.76 118.124L144.988 109.811C145.716 109.432 146.248 109.742 146.248 110.499V110.975C146.225 111.389 146.099 111.792 145.88 112.151C145.661 112.51 145.355 112.815 144.988 113.041L129.76 121.354C129.068 121.74 128.5 121.43 128.5 120.665V120.19C128.525 119.776 128.652 119.374 128.87 119.015C129.089 118.657 129.394 118.351 129.76 118.124Z" fill="#90CAF9"/>
<path opacity="0.1" d="M129.76 118.124L144.988 109.811C145.716 109.432 146.248 109.742 146.248 110.499V110.975C146.225 111.389 146.099 111.792 145.88 112.151C145.661 112.51 145.355 112.815 144.988 113.041L129.76 121.354C129.068 121.74 128.5 121.43 128.5 120.665V120.19C128.525 119.776 128.652 119.374 128.87 119.015C129.089 118.657 129.394 118.351 129.76 118.124Z" fill="black"/>
<path d="M129.134 128.159L175.203 103.006C175.545 102.813 175.829 102.971 175.829 103.35V108.433C175.817 108.639 175.753 108.84 175.645 109.019C175.536 109.198 175.385 109.351 175.203 109.466L129.134 134.619C128.784 134.812 128.5 134.66 128.5 134.275V129.192C128.513 128.985 128.576 128.783 128.686 128.604C128.797 128.424 128.95 128.272 129.134 128.159Z" fill="#90CAF9"/>
<path opacity="0.2" d="M129.134 128.159L175.203 103.006C175.545 102.813 175.829 102.971 175.829 103.35V108.433C175.817 108.639 175.753 108.84 175.645 109.019C175.536 109.198 175.385 109.351 175.203 109.466L129.134 134.619C128.784 134.812 128.5 134.66 128.5 134.275V129.192C128.513 128.985 128.576 128.783 128.686 128.604C128.797 128.424 128.95 128.272 129.134 128.159Z" fill="white"/>
<path d="M147.508 131.044L165.714 121.12C166.442 120.734 166.981 121.044 166.981 121.808V127.125C166.957 127.54 166.83 127.943 166.61 128.302C166.39 128.661 166.083 128.966 165.714 129.192L147.508 139.123C146.779 139.502 146.248 139.192 146.248 138.435V133.111C146.273 132.697 146.4 132.295 146.619 131.936C146.838 131.578 147.142 131.272 147.508 131.044Z" fill="#90CAF9"/>
<path opacity="0.1" d="M147.508 131.044L165.714 121.12C166.442 120.734 166.981 121.044 166.981 121.808V127.125C166.957 127.54 166.83 127.943 166.61 128.302C166.39 128.661 166.083 128.966 165.714 129.192L147.508 139.123C146.779 139.502 146.248 139.192 146.248 138.435V133.111C146.273 132.697 146.4 132.295 146.619 131.936C146.838 131.578 147.142 131.272 147.508 131.044Z" fill="black"/>
<path d="M190.62 108.605C190.62 108.605 181.677 96.9379 181.153 95.519C180.738 94.4722 181.153 92.9156 181.284 92.1924C181.415 91.4692 181.532 89.8576 181.663 89.4374C181.881 88.6523 180.811 88.8107 180.206 89.527C179.602 90.2433 179.398 91.6758 179.085 91.91C178.772 92.1442 176.39 88.8589 175.145 87.3436C173.9 85.8284 173.12 84.9055 172.356 85.4703C171.81 85.8766 172.217 86.7582 173.12 88.053C173.648 88.7503 174.134 89.4746 174.577 90.2226C174.715 90.505 173.973 90.5256 173.572 91.1111C173.259 91.5656 173.572 92.3026 173.135 92.6539C172.866 92.8474 172.682 93.1277 172.617 93.4414C172.553 93.7552 172.613 94.0804 172.785 94.3551C173.596 95.559 174.642 96.6062 175.866 97.4406C177.206 98.3153 177.745 98.6253 178.539 99.8168C179.333 101.008 186.455 113.178 186.936 113.909C187.416 114.639 188.341 116.126 189.747 116.168C191.152 116.209 202.659 106.842 203.248 106.374C205.142 104.879 205.746 104.666 206.067 106.009C206.177 106.486 206.26 106.969 206.314 107.455C206.54 109.163 207.771 115.265 207.771 115.265C207.771 115.265 213.597 117.931 218.382 116.643C223.166 115.355 224.783 113.433 224.783 113.433L222.387 109.742C223.035 108.219 226.028 102.048 226.997 97.7299L211.995 95.4364C211.689 95.3744 211.194 95.2573 210.538 95.0989C209.715 94.8923 207.625 94.2104 206.045 95.519C200.889 99.7686 190.635 108.605 190.635 108.605" fill="#FFA8A7"/>
<path d="M220.363 180.193L217.675 183.726C218.896 184.266 220.231 184.537 221.579 184.519C223.989 184.601 224.652 183.83 224.739 183.678C225.147 182.852 224.514 181.364 224.339 180.083L220.363 180.193Z" fill="#37474F"/>
<path d="M217.828 182.032C217.828 182.032 214.565 181.832 212.315 181.571C210.065 181.309 208.28 182.342 208.805 183.217C209.329 184.091 210.574 184.821 212.512 185.434C214.165 185.965 216.153 186.344 217.872 186.812C219.59 187.28 220.785 187.893 221.782 187.563C222.897 187.198 223.377 186.778 223.283 186.006C223.039 184.909 222.738 183.824 222.38 182.755L217.828 182.032Z" fill="#37474F"/>
<path d="M224.739 176.646C224.739 176.646 224.331 179.856 224.302 180.545C224.273 181.233 220.989 181.454 220.362 180.193L220.26 176.268L224.739 176.646Z" fill="#F28F8F"/>
<path d="M221.433 178.616L222.605 183.493C222.605 183.493 222.715 184.085 220.035 184.464C217.355 184.842 213.145 183.134 212.424 182.79C211.703 182.446 211.623 181.75 214.26 181.888C216.896 182.025 217.828 182.032 217.828 182.032L216.969 179.877L221.433 178.616Z" fill="#FFA8A7"/>
<path d="M226.953 97.6882L228.81 97.1992C228.81 97.1992 232.692 108.818 233.121 109.941C233.551 111.064 234.039 112.248 233.202 113.633C232.204 115.279 226.953 121.898 226.953 121.898L223.618 118.812L227.405 112.255L224.055 105.85L226.953 97.6882Z" fill="#F28F8F"/>
<path d="M207.88 82.5979C207.445 81.825 207.224 80.9602 207.238 80.0846C207.252 79.2089 207.5 78.3509 207.96 77.5908C209.81 74.3468 213.932 72.7695 218.84 73.3687C221.113 73.6511 223.793 75.435 225.256 78.1004C226.873 81.0551 227.026 87.0059 227.441 89.2581L207.88 82.5979Z" fill="#37474F"/>
<path d="M207.749 83.8721C207.749 83.8721 206.584 85.9727 206.788 86.1656C207.09 86.3324 207.42 86.4489 207.764 86.51L207.749 83.8721Z" fill="#FFA8A7"/>
<path d="M211.288 77.2332C210.021 78.0115 207.837 79.444 207.742 84.1619C207.64 88.9832 208.368 90.5742 209.126 91.132C209.635 91.5108 212.628 91.318 213.91 91.0356C215.192 90.7532 218.884 89.0245 220.217 86.4004C221.783 83.3148 221.462 78.8242 219.139 77.4467C217.957 76.7854 216.616 76.4189 215.243 76.3816C213.87 76.3442 212.509 76.6373 211.288 77.2332Z" fill="#FFA8A7"/>
<path d="M224.739 113.406C226.982 116.712 229.109 119.604 229.575 123.337C230.536 131.182 227.39 140.15 226.713 145.956C227.986 147.607 228.721 149.576 228.825 151.617C228.825 154.021 224.739 176.646 224.739 176.646C224.739 176.646 221.768 177.5 220.26 176.267L217.457 134.647L218.913 129.577L224.739 113.406Z" fill="#90CAF9"/>
<path opacity="0.2" d="M224.739 113.406C226.982 116.712 229.109 119.604 229.575 123.337C230.536 131.182 227.39 140.15 226.713 145.956C227.986 147.607 228.721 149.576 228.825 151.617C228.825 154.021 224.739 176.646 224.739 176.646C224.739 176.646 221.768 177.5 220.26 176.267L217.457 134.647L218.913 129.577L224.739 113.406Z" fill="black"/>
<path d="M217.457 134.647L218.913 129.578C221.702 128.883 224.392 127.873 226.924 126.568C226.924 126.568 225.409 129.178 221.054 130.611L218.804 137.119L218.614 152.031L217.457 134.647Z" fill="#90CAF9"/>
<path opacity="0.3" d="M217.457 134.647L218.913 129.578C221.702 128.883 224.392 127.873 226.924 126.568C226.924 126.568 225.409 129.178 221.054 130.611L218.804 137.119L218.614 152.031L217.457 134.647Z" fill="black"/>
<path d="M224.739 113.406C225.941 115.265 228.81 118.434 228.198 121.485C227.47 125.176 225.358 127.773 218.935 129.577L212.905 150.24C212.905 150.24 216.044 152.995 217.005 155.66C217.966 158.326 221.433 178.63 221.433 178.63C221.433 178.63 220.355 180.29 216.969 179.89C216.969 179.89 205.164 154.407 204.333 152.747C203.326 151.066 202.973 149.104 203.336 147.202C203.707 144.53 207.705 115.279 207.705 115.279L224.739 113.406Z" fill="#90CAF9"/>
<path opacity="0.2" d="M224.739 113.406C225.941 115.265 228.81 118.434 228.198 121.485C227.47 125.176 225.358 127.773 218.935 129.577L212.905 150.24C212.905 150.24 216.044 152.995 217.005 155.66C217.966 158.326 221.433 178.63 221.433 178.63C221.433 178.63 220.355 180.29 216.969 179.89C216.969 179.89 205.164 154.407 204.333 152.747C203.326 151.066 202.973 149.104 203.336 147.202C203.707 144.53 207.705 115.279 207.705 115.279L224.739 113.406Z" fill="black"/>
<path d="M226.953 97.6886L211.951 95.3951C211.645 95.3331 211.15 95.216 210.494 95.0576C210.494 95.0576 209.854 103.956 206.001 105.995C206.096 106.422 206.176 106.897 206.249 107.441C206.474 109.149 207.705 115.252 207.705 115.252C207.705 115.252 213.531 117.917 218.316 116.629C223.101 115.341 224.717 113.42 224.717 113.42L222.321 109.728C222.991 108.192 226.006 102.021 226.953 97.6886Z" fill="#90CAF9"/>
<path opacity="0.7" d="M226.953 97.6886L211.951 95.3951C211.645 95.3331 211.15 95.216 210.494 95.0576C210.494 95.0576 209.854 103.956 206.001 105.995C206.096 106.422 206.176 106.897 206.249 107.441C206.474 109.149 207.705 115.252 207.705 115.252C207.705 115.252 213.531 117.917 218.316 116.629C223.101 115.341 224.717 113.42 224.717 113.42L222.321 109.728C222.991 108.192 226.006 102.021 226.953 97.6886Z" fill="white"/>
<path d="M222.999 108.261C221.006 109.392 218.919 110.367 216.757 111.174C218.719 111.137 220.64 110.635 222.343 109.714L222.999 108.261Z" fill="#90CAF9"/>
<path d="M210.917 77.467C210.917 77.467 210.189 81.9438 211.907 84.5748C211.907 84.5748 212.548 82.791 214.143 83.1285C215.738 83.466 215.825 85.4564 214.704 86.5722C214.419 86.8852 214.046 87.1158 213.629 87.2376C213.211 87.3594 212.766 87.3675 212.344 87.2609C212.344 87.2609 212.089 90.498 211.951 93.2117C211.813 95.9253 211.055 101.842 214.281 104.232C217.508 106.622 225.606 107.462 229.4 102.448C231.512 99.6583 228.708 94.7269 227.405 89.1963C226.203 84.1134 225.526 76.5785 219.823 75.3663C214.121 74.1541 210.917 77.467 210.917 77.467Z" fill="#37474F"/>
</svg>
