<svg width="888" height="197" viewBox="0 0 888 197" fill="none" xmlns="http://www.w3.org/2000/svg">
<path d="M16.0659 92.1205C16.4865 92.1205 58.0371 91.3432 59.1554 91.3432C60.2736 91.3432 63.8234 91.3432 65.4649 89.6501C67.1064 87.957 70.5946 82.867 70.7177 82.6433C70.7586 82.5799 70.787 82.5086 70.8011 82.4336C70.8152 82.3587 70.8147 82.2815 70.7998 82.2067L60.0274 35.5661C59.9958 35.4294 59.9132 35.3112 59.7979 35.2374C59.6826 35.1636 59.5438 35.1401 59.4119 35.1721C59.3459 35.1871 59.2836 35.2157 59.2285 35.2562C59.1735 35.2967 59.1268 35.3484 59.0914 35.408C59.056 35.4676 59.0325 35.534 59.0223 35.6033C59.0122 35.6725 59.0156 35.7432 59.0323 35.8111L69.7328 82.2174C69.0557 83.1971 66.0086 87.5417 64.7262 88.894C63.4438 90.2464 60.2018 90.2783 59.1451 90.2783C58.0884 90.2783 21.2777 90.9598 16.507 91.045L8.29951 34.4587C8.28046 34.3175 8.20814 34.1899 8.09847 34.104C7.9888 34.0182 7.85076 33.981 7.71471 34.0008C7.57866 34.0206 7.45577 34.0956 7.37304 34.2094C7.2903 34.3233 7.25452 34.4666 7.27357 34.6078L15.5324 91.6627C15.5501 91.7943 15.6148 91.9143 15.7135 91.9991C15.8122 92.0838 15.9379 92.1271 16.0659 92.1205Z" fill="white" fill-opacity="0.25"/>
<path d="M50.5271 27.4198L53.9435 27.3559C54.0804 27.3531 54.2109 27.2946 54.3068 27.1931C54.4027 27.0916 54.4564 26.955 54.4564 26.8128C54.4443 26.6751 54.3847 26.5465 54.2886 26.4506C54.1925 26.3548 54.0663 26.2981 53.9332 26.291L50.5066 26.3549C50.3705 26.3549 50.24 26.411 50.1438 26.5109C50.0476 26.6107 49.9936 26.7461 49.9936 26.8873C49.9936 27.0285 50.0476 27.164 50.1438 27.2638C50.24 27.3637 50.3705 27.4198 50.5066 27.4198H50.5271Z" fill="white" fill-opacity="0.25"/>
<path d="M68.0603 83.6336C68.1963 83.6336 68.3268 83.5775 68.423 83.4777C68.5192 83.3778 68.5732 83.2424 68.5732 83.1012C68.5732 82.96 68.5192 82.8246 68.423 82.7247C68.3268 82.6249 68.1963 82.5688 68.0603 82.5688L23.1754 82.4197L13.706 28.1121L46.3411 27.4945C46.4754 27.4918 46.6032 27.4344 46.6972 27.3349C46.7912 27.2353 46.8439 27.1015 46.8438 26.9621C46.83 26.824 46.7701 26.6953 46.6746 26.5981C46.5791 26.5009 46.4539 26.4413 46.3206 26.4297L13.0904 27.0579C13.0151 27.0599 12.9411 27.079 12.8737 27.114C12.8063 27.149 12.7472 27.1989 12.7006 27.2603C12.6546 27.3194 12.6208 27.3878 12.6014 27.4611C12.582 27.5343 12.5773 27.611 12.5877 27.6862L22.2418 83.0586C22.2614 83.1818 22.3229 83.2935 22.4152 83.3736C22.5074 83.4537 22.6242 83.4969 22.7445 83.4952L68.0603 83.6549V83.6336Z" fill="white" fill-opacity="0.25"/>
<path d="M18.3023 89.4158L61.7509 88.2658C61.8912 88.2544 62.0226 88.19 62.1202 88.0848L65.8341 83.8253C65.9287 83.724 65.9817 83.5884 65.9817 83.4473C65.9817 83.3062 65.9287 83.1706 65.8341 83.0693C65.7873 83.0197 65.7314 82.9803 65.6698 82.9534C65.6081 82.9265 65.5419 82.9127 65.475 82.9127C65.4082 82.9127 65.342 82.9265 65.2803 82.9534C65.2186 82.9803 65.1628 83.0197 65.116 83.0693L61.5457 87.137L18.764 88.2764L11.0079 39.4955L14.1985 34.8421C14.2398 34.786 14.2697 34.7219 14.2864 34.6535C14.3031 34.5851 14.3062 34.514 14.2957 34.4443C14.2851 34.3746 14.2611 34.3079 14.225 34.2482C14.1889 34.1884 14.1415 34.1369 14.0857 34.0967C14.0306 34.0558 13.9682 34.0267 13.9021 34.011C13.8361 33.9953 13.7677 33.9933 13.7009 34.0052C13.6342 34.0171 13.5703 34.0426 13.5131 34.0802C13.4559 34.1178 13.4064 34.1669 13.3675 34.2244L9.9614 39.1121C9.88371 39.2305 9.85422 39.3759 9.87934 39.5168L17.738 88.9686C17.7584 89.1043 17.8284 89.2266 17.9336 89.3099C18.0387 89.3932 18.1708 89.4312 18.3023 89.4158Z" fill="white" fill-opacity="0.25"/>
<path d="M57.8626 85.9336H51.5736C51.5736 85.9336 52.5995 91.1088 53.1433 95.9965C53.687 100.884 53.9333 107.156 53.9333 107.156L57.5959 100.075L62.0587 106.07L57.8626 85.9336Z" fill="white" fill-opacity="0.25"/>
<path d="M322.914 96.6887C323.016 96.6896 323.115 96.6586 323.199 96.5997C323.284 96.5407 323.349 96.4567 323.386 96.3586C323.437 96.2271 323.437 96.08 323.385 95.9486C323.334 95.8173 323.234 95.7122 323.109 95.6558L296.547 84.5494C295.988 82.9298 295.512 81.2805 295.121 79.6085C294.998 78.8631 295.439 77.745 296.424 76.3074C296.804 75.7537 309.372 56.7034 311.403 53.6367L341.976 69.716C342.035 69.7491 342.1 69.7696 342.167 69.7762C342.234 69.7829 342.301 69.7756 342.365 69.7547C342.429 69.7339 342.489 69.6999 342.54 69.6549C342.591 69.6098 342.633 69.5545 342.663 69.4923C342.695 69.4296 342.714 69.3609 342.72 69.2902C342.726 69.2196 342.718 69.1485 342.697 69.081C342.676 69.0136 342.642 68.9512 342.598 68.8975C342.553 68.8438 342.499 68.7998 342.438 68.7682L311.464 52.476C311.353 52.4191 311.226 52.4049 311.106 52.4361C310.986 52.4673 310.88 52.5418 310.808 52.6464C310.654 52.87 295.983 75.1148 295.593 75.6898C294.844 76.7547 293.88 78.3839 294.106 79.7788C294.331 81.1738 295.593 84.9647 295.645 85.1031C295.669 85.1768 295.708 85.2442 295.759 85.3011C295.811 85.358 295.873 85.403 295.942 85.4332L322.719 96.6248C322.779 96.6607 322.845 96.6825 322.914 96.6887Z" fill="white" fill-opacity="0.25"/>
<path d="M329.285 96.9547C329.368 96.954 329.45 96.9323 329.523 96.8914C329.597 96.8506 329.659 96.7919 329.706 96.7204L330.916 94.8889C330.994 94.7717 331.023 94.6273 330.998 94.4875C330.973 94.3477 330.896 94.224 330.783 94.1435C330.67 94.063 330.531 94.0324 330.396 94.0583C330.262 94.0843 330.142 94.1647 330.065 94.2819L328.854 96.1241C328.782 96.241 328.755 96.3824 328.78 96.5191C328.805 96.6558 328.879 96.7774 328.988 96.8589C329.075 96.9208 329.179 96.9542 329.285 96.9547Z" fill="white" fill-opacity="0.25"/>
<path d="M331.973 92.8763C332.056 92.8756 332.138 92.8539 332.211 92.813C332.285 92.7722 332.347 92.7135 332.394 92.642L344.12 74.8483C344.162 74.7851 344.19 74.7135 344.202 74.6381C344.214 74.5628 344.211 74.4856 344.192 74.4117C344.172 74.3378 344.137 74.2692 344.089 74.2105C344.041 74.1517 343.982 74.1042 343.915 74.071L313.27 59.163C313.162 59.1075 313.039 59.0942 312.922 59.1254C312.805 59.1567 312.703 59.2305 312.634 59.3334L296.147 83.2181C296.069 83.3333 296.038 83.4754 296.059 83.6144C296.08 83.7535 296.152 83.8786 296.26 83.9635C296.315 84.0043 296.378 84.0334 296.444 84.0491C296.51 84.0648 296.578 84.0668 296.645 84.0549C296.712 84.043 296.776 84.0175 296.833 83.9799C296.89 83.9423 296.94 83.8933 296.978 83.8357L313.219 60.2811L342.971 74.7631L331.583 92.0457C331.509 92.1631 331.483 92.3062 331.509 92.4438C331.536 92.5814 331.615 92.7024 331.727 92.7805C331.799 92.8355 331.884 92.8686 331.973 92.8763Z" fill="white" fill-opacity="0.25"/>
<path d="M297.358 82.5157H297.461C297.593 82.4849 297.708 82.4023 297.783 82.2852C297.857 82.1681 297.885 82.0255 297.861 81.8874L297.163 78.6076L311.926 55.7878L338.396 69.2369L339.493 72.6019C339.54 72.7348 339.634 72.8436 339.757 72.9053C339.88 72.9669 340.021 72.9765 340.15 72.932C340.277 72.886 340.382 72.7898 340.441 72.6642C340.501 72.5387 340.511 72.3939 340.468 72.2611L339.298 68.6832C339.255 68.5496 339.163 68.4388 339.042 68.3744L311.937 54.6271C311.825 54.569 311.696 54.5553 311.575 54.5886C311.454 54.622 311.349 54.7 311.28 54.8081L296.117 78.2349C296.076 78.2924 296.048 78.3583 296.033 78.428C296.019 78.4978 296.02 78.57 296.034 78.6396L296.773 82.1429C296.809 82.2691 296.889 82.3769 296.997 82.4457C297.105 82.5146 297.233 82.5395 297.358 82.5157Z" fill="white" fill-opacity="0.25"/>
<path d="M298.866 77.085L301.144 73.7627C301.144 73.7627 298.23 72.4422 295.634 70.9408C293.039 69.4394 289.879 67.3203 289.879 67.3203L292.023 71.8246L287.478 72.0057L298.866 77.085Z" fill="white" fill-opacity="0.25"/>
<path d="M306.92 178.725H306.982C307.063 178.711 307.141 178.678 307.209 178.628C307.276 178.578 307.332 178.513 307.371 178.437L326.146 141.168C326.197 141.034 326.197 140.886 326.146 140.752C326.103 140.619 326.011 140.508 325.89 140.443L323.766 139.379C323.646 139.327 323.512 139.324 323.391 139.371C323.269 139.417 323.169 139.51 323.111 139.63C323.053 139.75 323.04 139.888 323.076 140.018C323.112 140.147 323.193 140.257 323.304 140.326L324.956 141.189L306.766 177.319L275.814 143.095C275.755 143.029 275.681 142.981 275.598 142.957L237.874 130.87L256.536 99.9897L257.911 100.096C257.979 100.103 258.047 100.096 258.112 100.076C258.177 100.055 258.237 100.02 258.289 99.9744C258.341 99.9286 258.383 99.8723 258.413 99.8091C258.443 99.7458 258.461 99.6768 258.465 99.6063C258.473 99.4668 258.429 99.3294 258.34 99.2238C258.252 99.1182 258.127 99.0528 257.993 99.0419L256.3 98.9035C256.207 98.8937 256.113 98.9115 256.03 98.9548C255.946 98.9982 255.876 99.0653 255.828 99.1484L236.653 130.913C236.619 130.986 236.601 131.066 236.601 131.147C236.601 131.229 236.619 131.309 236.653 131.382C236.681 131.458 236.725 131.528 236.782 131.585C236.839 131.642 236.907 131.685 236.982 131.712L275.218 143.947L306.54 178.576C306.643 178.676 306.779 178.729 306.92 178.725Z" fill="white" fill-opacity="0.25"/>
<path d="M306.509 173.646H306.591C306.668 173.631 306.74 173.599 306.802 173.551C306.865 173.503 306.915 173.441 306.951 173.369L324.905 137.792C324.961 137.683 324.979 137.557 324.954 137.436C324.93 137.316 324.865 137.208 324.771 137.132C324.689 137.057 316.256 129.891 312.275 119.966C308.602 110.809 302.283 106.262 295.368 107.795C295.296 107.811 295.228 107.843 295.17 107.889C295.111 107.935 295.063 107.994 295.029 108.061L278.296 139.4C278.248 139.49 278.226 139.593 278.233 139.695C278.239 139.798 278.275 139.897 278.335 139.979C278.394 140.061 278.476 140.124 278.569 140.159C278.662 140.194 278.764 140.201 278.86 140.177C279.137 140.113 285.734 138.697 287.222 145.289C288.822 152.338 295.829 161.41 299.194 165.766L299.564 166.255C301.576 168.852 303.782 171.28 306.161 173.518C306.258 173.603 306.382 173.648 306.509 173.646ZM323.817 137.664L306.376 172.251C304.227 170.178 302.224 167.946 300.385 165.574L300.015 165.084C296.691 160.825 289.756 151.848 288.248 145.033C286.904 139.112 281.907 138.814 279.712 138.985L295.819 108.775C302.118 107.507 307.905 111.82 311.342 120.371C314.973 129.422 322.206 136.227 323.817 137.664Z" fill="white" fill-opacity="0.25"/>
<path d="M278.758 140.145C278.849 140.147 278.939 140.123 279.018 140.076C279.098 140.029 279.164 139.961 279.209 139.879L295.942 108.53C295.978 108.412 295.978 108.286 295.942 108.168C294.732 102.311 288.535 99.6489 275.854 99.6489C264.784 99.6489 260.301 95.9964 260.26 95.9645C260.203 95.9168 260.137 95.8818 260.067 95.8616C259.996 95.8415 259.922 95.8366 259.85 95.8474C259.778 95.8609 259.711 95.8896 259.65 95.9318C259.59 95.9739 259.539 96.0286 259.501 96.0923L240.726 127.857C240.659 127.975 240.637 128.116 240.666 128.25C240.694 128.385 240.771 128.503 240.88 128.581C240.931 128.581 242.255 129.497 249.99 132.031C255.356 133.799 261.276 133.554 266.046 133.362C267.939 133.251 269.837 133.251 271.73 133.362C276.224 133.746 278.204 139.751 278.224 139.751C278.256 139.85 278.314 139.936 278.393 140.001C278.471 140.065 278.566 140.104 278.665 140.113L278.758 140.145ZM294.947 108.2L278.83 138.399C277.988 136.482 275.813 132.659 271.863 132.319C269.929 132.208 267.991 132.208 266.057 132.319C261.378 132.51 255.551 132.745 250.349 131.041C247.496 130.173 244.691 129.142 241.947 127.953L260.137 97.1571C261.573 98.1262 266.344 100.735 275.906 100.735C287.868 100.746 293.757 103.088 294.947 108.2Z" fill="white" fill-opacity="0.25"/>
<path d="M293.449 160.932C293.564 160.934 293.676 160.896 293.767 160.825C293.874 160.735 293.942 160.606 293.957 160.464C293.973 160.323 293.934 160.181 293.85 160.069C291.869 157.492 290.3 155.213 288.915 153.201C287.387 150.749 285.597 148.484 283.58 146.45C281.814 144.875 279.846 143.563 277.732 142.552C277.671 142.524 277.605 142.509 277.538 142.508C277.471 142.507 277.405 142.519 277.342 142.545C277.28 142.571 277.224 142.609 277.176 142.658C277.129 142.707 277.091 142.765 277.065 142.829C277.013 142.959 277.012 143.105 277.061 143.236C277.111 143.368 277.208 143.473 277.332 143.532C279.347 144.504 281.225 145.758 282.913 147.259C284.857 149.241 286.577 151.445 288.043 153.829C289.438 155.852 291.018 158.088 293.019 160.74C293.07 160.805 293.137 160.856 293.212 160.89C293.287 160.923 293.368 160.937 293.449 160.932Z" fill="white" fill-opacity="0.25"/>
<path d="M274.274 141.029C274.387 141.03 274.497 140.989 274.582 140.912C274.689 140.826 274.759 140.699 274.777 140.559C274.794 140.419 274.757 140.278 274.675 140.167C272.737 137.732 269.985 136.146 266.97 135.726L265.133 135.577C257.263 135.129 249.518 133.33 242.214 130.253C242.086 130.202 241.944 130.206 241.819 130.264C241.694 130.322 241.596 130.429 241.547 130.562C241.498 130.694 241.502 130.842 241.558 130.972C241.613 131.101 241.717 131.203 241.844 131.254C249.243 134.357 257.084 136.177 265.051 136.642L266.877 136.791C269.609 137.188 272.1 138.627 273.864 140.827C273.914 140.889 273.977 140.94 274.048 140.974C274.119 141.009 274.196 141.028 274.274 141.029Z" fill="white" fill-opacity="0.25"/>
<path d="M318.339 142.723C318.439 142.723 318.537 142.694 318.621 142.637C318.705 142.581 318.771 142.5 318.812 142.405C318.852 142.31 318.865 142.204 318.848 142.102C318.831 141.999 318.786 141.904 318.718 141.828C315.231 137.667 311.976 133.301 308.972 128.752C303.175 120.169 298.918 116.666 294.27 116.666C294.134 116.666 294.003 116.722 293.907 116.821C293.811 116.921 293.757 117.057 293.757 117.198C293.757 117.339 293.811 117.475 293.907 117.574C294.003 117.674 294.134 117.73 294.27 117.73C298.538 117.73 302.56 121.106 308.13 129.369C311.166 133.951 314.447 138.353 317.959 142.552C318.007 142.606 318.066 142.649 318.132 142.679C318.197 142.708 318.267 142.723 318.339 142.723Z" fill="white" fill-opacity="0.25"/>
<path d="M315.076 148.228C315.205 148.229 315.33 148.179 315.425 148.089C315.473 148.041 315.511 147.983 315.537 147.919C315.562 147.855 315.576 147.786 315.576 147.717C315.576 147.647 315.562 147.579 315.537 147.515C315.511 147.451 315.473 147.393 315.425 147.344C311.941 143.174 308.683 138.804 305.668 134.257C299.882 125.674 295.624 122.171 290.967 122.171C290.831 122.174 290.702 122.231 290.607 122.33C290.511 122.429 290.456 122.563 290.454 122.703C290.454 122.845 290.508 122.98 290.604 123.08C290.7 123.18 290.83 123.236 290.967 123.236C295.245 123.236 299.256 126.611 304.837 134.875C307.873 139.457 311.154 143.858 314.666 148.058C314.718 148.116 314.781 148.161 314.852 148.191C314.923 148.22 315 148.233 315.076 148.228Z" fill="white" fill-opacity="0.25"/>
<path d="M311.814 153.733C311.912 153.732 312.007 153.701 312.089 153.645C312.172 153.589 312.236 153.51 312.276 153.417C312.316 153.324 312.33 153.221 312.315 153.12C312.3 153.02 312.258 152.925 312.193 152.849C308.71 148.681 305.453 144.316 302.436 139.773C296.65 131.179 292.393 127.676 287.735 127.676C287.6 127.679 287.471 127.735 287.375 127.835C287.279 127.934 287.224 128.068 287.222 128.208C287.222 128.349 287.276 128.485 287.372 128.585C287.468 128.685 287.599 128.741 287.735 128.741C292.013 128.741 296.024 132.116 301.595 140.379C304.636 144.961 307.92 149.362 311.434 153.562C311.482 153.617 311.541 153.661 311.606 153.69C311.672 153.719 311.742 153.734 311.814 153.733Z" fill="white" fill-opacity="0.25"/>
<path d="M308.551 159.238C308.614 159.24 308.676 159.228 308.734 159.204C308.792 159.18 308.845 159.145 308.89 159.1C308.938 159.051 308.975 158.993 309.001 158.929C309.027 158.865 309.041 158.797 309.041 158.727C309.041 158.658 309.027 158.589 309.001 158.525C308.975 158.461 308.938 158.403 308.89 158.354C305.403 154.19 302.145 149.824 299.133 145.278C293.347 136.685 289.089 133.192 284.431 133.192C284.295 133.192 284.165 133.248 284.069 133.348C283.972 133.448 283.918 133.583 283.918 133.724C283.918 133.866 283.972 134.001 284.069 134.101C284.165 134.201 284.295 134.257 284.431 134.257C288.709 134.257 292.721 137.622 298.292 145.885C301.325 150.472 304.61 154.873 308.131 159.068C308.183 159.128 308.248 159.175 308.321 159.205C308.394 159.234 308.473 159.246 308.551 159.238Z" fill="white" fill-opacity="0.25"/>
<path d="M288.555 115.196H288.73C288.856 115.145 288.958 115.046 289.016 114.919C289.073 114.792 289.081 114.647 289.037 114.514C289.037 114.461 287.201 109.499 280.83 109.499C268.878 109.499 261.122 107.582 260.096 104.355C260.052 104.214 259.956 104.097 259.829 104.029C259.766 103.995 259.698 103.975 259.627 103.969C259.557 103.963 259.486 103.971 259.419 103.993C259.351 104.016 259.289 104.052 259.235 104.099C259.181 104.147 259.136 104.205 259.104 104.27C259.071 104.335 259.052 104.406 259.046 104.479C259.04 104.553 259.048 104.626 259.07 104.696C260.701 109.808 273.371 110.564 280.779 110.564C286.442 110.564 287.96 114.695 288.053 114.876C288.095 114.977 288.165 115.061 288.255 115.118C288.345 115.176 288.45 115.203 288.555 115.196Z" fill="white" fill-opacity="0.25"/>
<path d="M284.882 121.543C284.997 121.543 285.108 121.506 285.201 121.436C285.306 121.348 285.374 121.221 285.39 121.081C285.405 120.941 285.366 120.801 285.283 120.691C285.159 120.52 282.205 116.666 274.274 116.666C265.749 116.666 259.419 114.589 255.448 110.468C255.352 110.371 255.224 110.316 255.089 110.316C254.955 110.316 254.826 110.371 254.73 110.468C254.682 110.518 254.644 110.576 254.618 110.641C254.592 110.706 254.578 110.776 254.578 110.846C254.578 110.916 254.592 110.986 254.618 111.051C254.644 111.116 254.682 111.175 254.73 111.224C258.885 115.547 265.461 117.784 274.274 117.784C281.641 117.784 284.452 121.362 284.472 121.394C284.526 121.448 284.59 121.49 284.661 121.515C284.732 121.541 284.808 121.55 284.882 121.543Z" fill="white" fill-opacity="0.25"/>
<path d="M282.431 127.9C282.505 127.897 282.578 127.879 282.646 127.846C282.707 127.818 282.762 127.777 282.808 127.726C282.854 127.674 282.889 127.614 282.912 127.549C282.935 127.483 282.945 127.414 282.942 127.344C282.938 127.274 282.921 127.206 282.892 127.143C281.943 125.311 280.516 123.794 278.774 122.766C277.032 121.737 275.045 121.24 273.043 121.329C264.466 121.329 256.956 119.466 252.945 116.357C252.892 116.313 252.83 116.281 252.765 116.263C252.699 116.245 252.631 116.241 252.564 116.251C252.497 116.261 252.433 116.285 252.375 116.321C252.317 116.358 252.266 116.406 252.227 116.463C252.148 116.577 252.114 116.718 252.133 116.857C252.153 116.996 252.223 117.122 252.329 117.208C258.352 121.883 268.827 122.394 273.043 122.394C274.85 122.306 276.645 122.747 278.223 123.666C279.801 124.584 281.099 125.944 281.969 127.591C282.009 127.683 282.074 127.762 282.155 127.816C282.237 127.871 282.333 127.9 282.431 127.9Z" fill="white" fill-opacity="0.25"/>
<path d="M279.578 132.553C279.626 132.562 279.674 132.562 279.722 132.553C279.851 132.511 279.959 132.418 280.024 132.295C280.089 132.172 280.106 132.028 280.071 131.892C280.009 131.701 278.655 127.292 271.443 126.856C263.937 126.444 256.549 124.741 249.58 121.819C249.517 121.781 249.448 121.758 249.376 121.75C249.305 121.743 249.232 121.751 249.164 121.774C249.095 121.797 249.032 121.835 248.979 121.886C248.925 121.936 248.883 121.997 248.854 122.066C248.825 122.134 248.81 122.208 248.81 122.283C248.811 122.358 248.826 122.432 248.856 122.5C248.886 122.568 248.929 122.629 248.983 122.679C249.037 122.728 249.101 122.765 249.169 122.788C256.246 125.773 263.753 127.507 271.381 127.92C277.834 128.314 279.034 132.041 279.086 132.18C279.119 132.288 279.184 132.383 279.273 132.45C279.362 132.517 279.469 132.553 279.578 132.553Z" fill="white" fill-opacity="0.25"/>
<path d="M80.8845 8.18858C80.9613 8.17938 81.0351 8.15265 81.1008 8.1103C81.1664 8.06795 81.2222 8.01104 81.2641 7.94366L95.7094 -16.3031L123.328 -31.9245C123.401 -31.9633 123.464 -32.0207 123.511 -32.0914C123.557 -32.1621 123.586 -32.2439 123.594 -32.3291C123.604 -32.4135 123.594 -32.4991 123.566 -32.5788C123.537 -32.6584 123.491 -32.7298 123.43 -32.787L102.788 -52.1993C102.737 -52.2477 102.677 -52.285 102.612 -52.3088C102.547 -52.3325 102.478 -52.3424 102.409 -52.3377C102.342 -52.3332 102.277 -52.3148 102.217 -52.2838C102.157 -52.2527 102.104 -52.2095 102.06 -52.1567L100.983 -50.8789C100.913 -50.771 100.884 -50.6404 100.9 -50.5116C100.917 -50.3829 100.978 -50.2648 101.073 -50.1797C101.167 -50.0946 101.289 -50.0484 101.414 -50.0497C101.539 -50.051 101.659 -50.0997 101.752 -50.1867L102.481 -51.0493L122.209 -32.4995L95.1349 -17.1763C95.0582 -17.1265 94.9919 -17.0613 94.9399 -16.9846L80.7717 6.79361L64.4079 -11.2237L64.6849 -12.0543C64.7072 -12.1207 64.7166 -12.191 64.7126 -12.2612C64.7087 -12.3314 64.6914 -12.4001 64.6619 -12.4634C64.6324 -12.5267 64.5911 -12.5833 64.5405 -12.6301C64.4899 -12.6768 64.4309 -12.7127 64.3669 -12.7358C64.3029 -12.7589 64.2351 -12.7686 64.1675 -12.7645C64.0999 -12.7604 64.0337 -12.7426 63.9727 -12.7119C63.9118 -12.6812 63.8572 -12.6384 63.8122 -12.5859C63.7672 -12.5334 63.7325 -12.4721 63.7103 -12.4057L63.3307 -11.2663C63.2995 -11.1738 63.2935 -11.0741 63.3135 -10.9783C63.3334 -10.8825 63.3784 -10.7942 63.4435 -10.7232L80.4844 8.02885C80.5364 8.08328 80.599 8.12566 80.668 8.15319C80.737 8.18073 80.8108 8.19278 80.8845 8.18858Z" fill="white" fill-opacity="0.25"/>
<path d="M79.6639 4.90926C79.7909 4.90941 79.914 4.8643 80.0127 4.78148C80.0948 4.69629 80.9053 3.887 83.8292 -0.947433C85.8811 -4.37626 86.7839 -8.52919 87.4816 -11.8622C87.7329 -13.1814 88.0514 -14.4859 88.4357 -15.7702C89.4616 -18.7092 93.4936 -19.0287 93.5654 -19.0393C93.6643 -19.0448 93.7595 -19.0799 93.8397 -19.1404C93.9198 -19.2008 93.9813 -19.2841 94.0168 -19.3801C94.0492 -19.4792 94.0539 -19.5858 94.0303 -19.6876C94.0067 -19.7894 93.9558 -19.8821 93.8835 -19.9551L76.6887 -36.9395C76.5996 -37.0263 76.4826 -37.0757 76.3604 -37.0779C72.3284 -37.2803 69.5071 -33.4042 67.2911 -24.5446C65.3828 -16.9309 62.3153 -14.535 62.2845 -14.5137C62.225 -14.4687 62.1752 -14.4114 62.1381 -14.3454C62.1011 -14.2794 62.0775 -14.2062 62.069 -14.1303C62.0636 -14.0545 62.0736 -13.9784 62.0984 -13.9069C62.1231 -13.8353 62.162 -13.77 62.2127 -13.715L79.2946 4.6963C79.3385 4.7565 79.394 4.80652 79.4576 4.84319C79.5212 4.87986 79.5915 4.90237 79.6639 4.90926ZM92.3856 -19.9338C90.9082 -19.6037 88.3331 -18.6879 87.4713 -16.1216C87.0521 -14.8024 86.7095 -13.4583 86.4454 -12.0965C85.758 -8.838 84.8962 -4.79155 82.9162 -1.5118C81.8951 0.245312 80.7891 1.9477 79.6024 3.58885L63.2591 -14.0558C64.2338 -15.0248 66.6139 -17.9319 68.2144 -24.2784C70.215 -32.2754 72.708 -35.9918 76.0423 -35.9918L92.3856 -19.9338Z" fill="white" fill-opacity="0.25"/>
<path d="M81.4388 4.73831C81.5209 4.7379 81.6017 4.71745 81.6748 4.6786C81.7479 4.63976 81.8112 4.5836 81.8594 4.51469C85.1383 -0.0688457 87.6686 -5.18094 89.3488 -10.6169C89.4924 -11.0641 89.6361 -11.4794 89.7592 -11.8521C90.4797 -13.6237 91.8011 -15.0596 93.4731 -15.8879C93.5418 -15.9104 93.6053 -15.9476 93.6592 -15.9972C93.7132 -16.0468 93.7565 -16.1077 93.7862 -16.1758C93.816 -16.244 93.8317 -16.3178 93.8321 -16.3927C93.8325 -16.4675 93.8177 -16.5416 93.7887 -16.61C93.7597 -16.6785 93.7171 -16.7399 93.6637 -16.7902C93.6103 -16.8404 93.5473 -16.8785 93.4788 -16.9018C93.4103 -16.925 93.3379 -16.9331 93.2662 -16.9254C93.1945 -16.9177 93.1251 -16.8943 93.0627 -16.8569C91.1239 -15.9277 89.5981 -14.2679 88.7948 -12.2142C88.6614 -11.8308 88.528 -11.4155 88.3844 -10.9683C86.7331 -5.61338 84.2445 -0.576832 81.0182 3.93967C80.9791 3.99604 80.9512 4.05995 80.9362 4.12765C80.9212 4.19535 80.9194 4.26547 80.9309 4.33391C80.9423 4.40235 80.9669 4.46772 81.003 4.52619C81.0391 4.58467 81.0861 4.63506 81.1413 4.67442C81.2307 4.72995 81.3355 4.75246 81.4388 4.73831Z" fill="white" fill-opacity="0.25"/>
<path d="M264.056 20.9987H264.179L267.893 20.0403C267.971 20.0196 268.044 19.9799 268.104 19.9246C268.165 19.8694 268.212 19.8 268.242 19.7221C268.272 19.6443 268.284 19.5602 268.277 19.4767C268.27 19.3932 268.244 19.3127 268.201 19.2417L251.057 -8.65752C250.984 -8.77755 250.867 -8.86237 250.734 -8.89333C250.6 -8.92428 250.46 -8.89883 250.344 -8.82257C250.229 -8.74632 250.147 -8.62552 250.117 -8.48673C250.087 -8.34794 250.112 -8.20253 250.185 -8.0825L266.949 19.1884L264.282 19.8806L247.343 -6.2616C247.27 -6.37404 247.159 -6.45391 247.031 -6.48545C246.904 -6.51698 246.77 -6.49791 246.656 -6.43198L219.663 9.72186L216.729 6.67638L246.225 -9.29643C246.346 -9.36139 246.437 -9.47361 246.479 -9.60841C246.52 -9.74321 246.508 -9.88954 246.446 -10.0152C246.383 -10.1409 246.275 -10.2356 246.145 -10.2786C246.015 -10.3215 245.874 -10.3091 245.753 -10.2442L215.631 6.112C215.559 6.14987 215.497 6.20563 215.451 6.27435C215.404 6.34307 215.375 6.42263 215.365 6.506C215.352 6.58704 215.359 6.66999 215.384 6.74783C215.409 6.82568 215.452 6.89613 215.508 6.95324L219.212 10.808C219.291 10.8901 219.395 10.9429 219.506 10.9583C219.617 10.9737 219.73 10.9508 219.828 10.8932L246.758 -5.21805L263.635 20.8283C263.688 20.8888 263.753 20.9357 263.826 20.9653C263.899 20.9948 263.978 21.0063 264.056 20.9987Z" fill="white" fill-opacity="0.25"/>
<path d="M216.801 54.1794C216.887 54.1798 216.972 54.1579 217.047 54.1155L239.751 40.6451C239.818 40.6061 239.875 40.5525 239.919 40.4882C239.964 40.4238 239.994 40.3501 240.008 40.2724L247.425 -5.89971C247.446 -6.04077 247.413 -6.18463 247.332 -6.30021C247.251 -6.41578 247.13 -6.49378 246.995 -6.51733C246.928 -6.52791 246.86 -6.52472 246.794 -6.50796C246.729 -6.4912 246.667 -6.46119 246.613 -6.41964C246.558 -6.3781 246.513 -6.32583 246.478 -6.26585C246.443 -6.20587 246.42 -6.13934 246.41 -6.07008L239.033 39.8464L217.335 52.6886L220.505 12.8098C220.511 12.6697 220.466 12.5325 220.378 12.4258C220.29 12.3191 220.167 12.2508 220.033 12.2348C219.965 12.2289 219.898 12.237 219.833 12.2585C219.769 12.28 219.709 12.3145 219.658 12.36C219.606 12.4056 219.564 12.4612 219.533 12.5238C219.503 12.5863 219.484 12.6546 219.479 12.7246L216.309 53.6043C216.299 53.7008 216.316 53.7981 216.358 53.8848C216.4 53.9716 216.465 54.0442 216.545 54.0942C216.62 54.1496 216.709 54.1794 216.801 54.1794Z" fill="white" fill-opacity="0.25"/>
<path d="M216.801 54.1796C216.889 54.1788 216.975 54.1548 217.051 54.1097C217.127 54.0646 217.191 54 217.236 53.922C217.282 53.844 217.307 53.7553 217.31 53.6643C217.313 53.5733 217.293 53.4831 217.253 53.4022L213.611 46.3209L216.381 6.55929C216.385 6.48937 216.377 6.41917 216.355 6.3527C216.334 6.28623 216.3 6.22479 216.256 6.17188C216.166 6.06505 216.04 5.99947 215.903 5.98959C215.767 5.9797 215.633 6.02631 215.53 6.11917C215.427 6.21203 215.364 6.34354 215.355 6.48475L212.574 46.4381C212.573 46.5376 212.594 46.636 212.636 46.7256L216.309 53.892C216.355 53.9847 216.426 54.0614 216.513 54.1125C216.601 54.1636 216.701 54.1869 216.801 54.1796Z" fill="white" fill-opacity="0.25"/>
<path d="M254.792 62.4109H254.894C254.992 62.3921 255.082 62.3436 255.153 62.2716C255.225 62.1996 255.274 62.1072 255.294 62.0063L263.174 24.4915C263.201 24.3518 263.174 24.2065 263.1 24.087C263.025 23.9674 262.908 23.8832 262.773 23.8526C262.707 23.8386 262.639 23.8382 262.573 23.8515C262.507 23.8648 262.444 23.8915 262.388 23.9301C262.332 23.9686 262.283 24.0183 262.246 24.0763C262.208 24.1342 262.182 24.1993 262.168 24.2679L254.535 60.622L239.905 39.868C239.825 39.7536 239.704 39.677 239.57 39.655C239.435 39.6331 239.297 39.6675 239.187 39.7508C239.077 39.8342 239.003 39.9595 238.982 40.0993C238.961 40.2391 238.994 40.3819 239.074 40.4962L254.371 62.1447C254.412 62.2235 254.473 62.2896 254.547 62.3364C254.621 62.3831 254.705 62.4088 254.792 62.4109Z" fill="white" fill-opacity="0.25"/>
<path d="M254.792 62.4113H254.853L259.018 61.9321C259.124 61.9191 259.224 61.8722 259.303 61.7977C259.382 61.7233 259.437 61.6251 259.46 61.5168L268.262 19.6681C268.276 19.5981 268.277 19.526 268.264 19.4558C268.252 19.3856 268.226 19.3186 268.188 19.2588C268.15 19.199 268.102 19.1474 268.045 19.1071C267.988 19.0668 267.924 19.0385 267.857 19.0238C267.79 19.0091 267.72 19.0084 267.652 19.0216C267.585 19.0348 267.52 19.0616 267.463 19.1007C267.405 19.1397 267.355 19.1902 267.317 19.2492C267.278 19.3082 267.25 19.3745 267.236 19.4444L258.505 60.9098L254.71 61.3464C254.573 61.3464 254.443 61.4025 254.347 61.5024C254.251 61.6022 254.197 61.7377 254.197 61.8789C254.197 62.0201 254.251 62.1555 254.347 62.2553C254.443 62.3552 254.573 62.4113 254.71 62.4113H254.792Z" fill="white" fill-opacity="0.25"/>
<path d="M258.034 27.7289C258.128 27.7295 258.221 27.7029 258.302 27.6523C258.382 27.6016 258.448 27.5287 258.492 27.4418C258.535 27.3548 258.555 27.257 258.548 27.1593C258.542 27.0615 258.509 26.9675 258.454 26.8877L246.4 9.57316C246.362 9.51555 246.313 9.46657 246.256 9.42922C246.2 9.39188 246.136 9.36695 246.07 9.35598C246.004 9.34501 245.936 9.34823 245.871 9.36543C245.806 9.38264 245.745 9.41346 245.692 9.45603C245.636 9.49638 245.589 9.54774 245.553 9.60714C245.516 9.66653 245.492 9.7328 245.48 9.8021C245.469 9.8714 245.471 9.94237 245.486 10.0109C245.501 10.0794 245.529 10.1442 245.569 10.2014L257.623 27.516C257.671 27.5827 257.732 27.6368 257.804 27.6739C257.875 27.7109 257.954 27.7298 258.034 27.7289Z" fill="white" fill-opacity="0.25"/>
<path d="M257.11 35.9064C257.217 35.9059 257.32 35.8725 257.408 35.8106C257.516 35.7257 257.588 35.6006 257.609 35.4615C257.63 35.3225 257.599 35.1804 257.521 35.0652L245.476 17.7506C245.437 17.6927 245.388 17.6435 245.33 17.6061C245.273 17.5686 245.208 17.5436 245.141 17.5327C245.074 17.5217 245.006 17.525 244.94 17.5424C244.874 17.5597 244.812 17.5907 244.758 17.6335C244.651 17.7164 244.579 17.8397 244.557 17.977C244.536 18.1143 244.568 18.2547 244.645 18.3682L256.69 35.6828C256.737 35.753 256.8 35.8101 256.873 35.8491C256.947 35.8881 257.028 35.9078 257.11 35.9064Z" fill="white" fill-opacity="0.25"/>
<path d="M256.187 44.0848C256.295 44.0857 256.4 44.0481 256.485 43.9783C256.592 43.8954 256.664 43.7721 256.685 43.6348C256.706 43.4975 256.675 43.3571 256.597 43.2436L244.553 25.929C244.514 25.8715 244.465 25.8224 244.407 25.7848C244.35 25.7472 244.286 25.7217 244.219 25.7098C244.153 25.6979 244.084 25.6999 244.018 25.7156C243.952 25.7313 243.89 25.7604 243.835 25.8012C243.727 25.8861 243.654 26.0112 243.633 26.1503C243.612 26.2893 243.644 26.4315 243.722 26.5467L255.766 43.8612C255.813 43.9314 255.876 43.9885 255.95 44.0275C256.023 44.0665 256.105 44.0862 256.187 44.0848Z" fill="white" fill-opacity="0.25"/>
<path d="M255.294 52.2631C255.403 52.2649 255.508 52.2272 255.592 52.1566C255.647 52.1162 255.695 52.0649 255.731 52.0055C255.767 51.9461 255.792 51.8798 255.803 51.8105C255.815 51.7412 255.813 51.6703 255.798 51.6017C255.783 51.5332 255.754 51.4684 255.715 51.4112L243.66 34.0967C243.58 33.9851 243.462 33.9104 243.329 33.8885C243.197 33.8666 243.062 33.8993 242.952 33.9795C242.897 34.0199 242.85 34.0713 242.813 34.1307C242.777 34.1901 242.753 34.2563 242.741 34.3256C242.73 34.3949 242.732 34.4659 242.747 34.5344C242.762 34.603 242.79 34.6677 242.829 34.7249L254.884 52.0395C254.931 52.1075 254.992 52.1633 255.064 52.2021C255.135 52.241 255.214 52.2619 255.294 52.2631Z" fill="white" fill-opacity="0.25"/>
<path d="M224.67 20.5195C224.761 20.5213 224.85 20.4954 224.926 20.4449L241.147 10.8612C241.265 10.7906 241.351 10.6741 241.387 10.5373C241.423 10.4005 241.404 10.2547 241.336 10.1318C241.268 10.009 241.156 9.91919 241.024 9.88225C240.892 9.84531 240.752 9.86422 240.634 9.93482L224.413 19.5185C224.296 19.5917 224.211 19.7095 224.177 19.8468C224.142 19.9841 224.161 20.13 224.229 20.2533C224.274 20.3337 224.338 20.4006 224.415 20.4474C224.493 20.4941 224.58 20.5189 224.67 20.5195Z" fill="white" fill-opacity="0.25"/>
<path d="M224.67 28.2077C224.759 28.2081 224.847 28.1862 224.927 28.1438L241.147 18.5601C241.212 18.5294 241.271 18.4848 241.318 18.4292C241.366 18.3736 241.402 18.3082 241.424 18.2373C241.446 18.1663 241.453 18.0914 241.445 18.0173C241.438 17.9433 241.415 17.8717 241.379 17.8073C241.343 17.7429 241.294 17.6871 241.236 17.6434C241.178 17.5998 241.111 17.5693 241.041 17.5539C240.971 17.5386 240.898 17.5387 240.828 17.5542C240.758 17.5698 240.692 17.6005 240.634 17.6443L224.414 27.228C224.297 27.2991 224.212 27.4151 224.178 27.5506C224.143 27.6862 224.162 27.8305 224.229 27.9521C224.275 28.0306 224.34 28.0954 224.417 28.1402C224.494 28.1849 224.582 28.2082 224.67 28.2077Z" fill="white" fill-opacity="0.25"/>
<path d="M222.362 36.386C222.447 36.3852 222.532 36.3633 222.608 36.3221L238.828 26.7384C238.946 26.6691 239.033 26.5539 239.07 26.4182C239.106 26.2825 239.089 26.1372 239.023 26.0143C238.954 25.8909 238.841 25.8005 238.709 25.7627C238.577 25.7248 238.435 25.7425 238.315 25.812L222.105 35.3957C222.046 35.429 221.993 35.4744 221.951 35.5292C221.909 35.584 221.878 35.6471 221.859 35.7147C221.841 35.7823 221.836 35.853 221.845 35.9226C221.854 35.9922 221.876 36.0593 221.91 36.1198C221.956 36.2018 222.022 36.2698 222.101 36.3166C222.181 36.3634 222.27 36.3873 222.362 36.386Z" fill="white" fill-opacity="0.25"/>
<path d="M221.89 44.5644C221.981 44.5662 222.07 44.5403 222.146 44.4898L238.366 34.9062C238.425 34.8712 238.476 34.8246 238.518 34.769C238.559 34.7134 238.589 34.65 238.607 34.5823C238.625 34.5145 238.629 34.4439 238.62 34.3743C238.612 34.3047 238.59 34.2376 238.556 34.1767C238.523 34.1159 238.478 34.0626 238.424 34.0197C238.371 33.9769 238.309 33.9455 238.244 33.9272C238.179 33.9089 238.111 33.9041 238.044 33.9131C237.977 33.9221 237.912 33.9448 237.853 33.9797L221.633 43.5634C221.537 43.6227 221.462 43.7131 221.42 43.8207C221.378 43.9283 221.371 44.0473 221.4 44.1596C221.429 44.2718 221.492 44.3711 221.581 44.4422C221.669 44.5134 221.778 44.5526 221.89 44.5537V44.5644Z" fill="white" fill-opacity="0.25"/>
<path d="M20.3543 196.583C20.415 196.598 20.4782 196.598 20.539 196.583L52.0969 183.464C52.1725 183.434 52.2399 183.385 52.2935 183.322C52.3471 183.259 52.3852 183.183 52.4047 183.102C52.4233 183.021 52.4238 182.936 52.406 182.855C52.3882 182.774 52.3527 182.698 52.3021 182.633L48.9883 178.374C48.916 178.285 48.8182 178.222 48.7093 178.196C48.6003 178.169 48.486 178.179 48.383 178.225L20.026 191.439L5.76542 163.753C5.71289 163.66 5.63565 163.584 5.5429 163.535C5.45015 163.486 5.34578 163.466 5.24218 163.476L1.45646 164.051C1.37614 164.062 1.2995 164.092 1.23329 164.141C1.16708 164.189 1.11335 164.253 1.07687 164.328C1.03909 164.404 1.01938 164.488 1.01938 164.573C1.01938 164.658 1.03909 164.742 1.07687 164.818L15.44 194.357C15.5013 194.484 15.6086 194.581 15.7385 194.626C15.8684 194.671 16.0101 194.66 16.1326 194.597C16.255 194.533 16.3481 194.422 16.3914 194.287C16.4347 194.152 16.4246 194.005 16.3634 193.878L2.32851 164.999L5.04725 164.584L19.3284 192.323C19.3915 192.441 19.4948 192.531 19.6181 192.574C19.7415 192.618 19.8759 192.612 19.9952 192.558L48.424 179.311L51.0504 182.74L20.1389 195.518C20.014 195.572 19.9143 195.675 19.8607 195.804C19.8071 195.933 19.8039 196.078 19.8516 196.21C19.8864 196.319 19.9539 196.415 20.0443 196.482C20.1347 196.549 20.2432 196.584 20.3543 196.583Z" fill="white" fill-opacity="0.25"/>
<path d="M19.7798 192.632C19.8925 192.634 20.0029 192.598 20.0937 192.529C20.1846 192.46 20.2509 192.361 20.2825 192.249L32.0706 147.323L54.8567 136.812L47.8393 176.159C47.8153 176.297 47.8449 176.44 47.9218 176.555C47.9987 176.671 48.1165 176.751 48.2496 176.776C48.3829 176.801 48.5202 176.771 48.6317 176.691C48.7432 176.611 48.8197 176.489 48.8447 176.351L56.0262 136.014C56.0464 135.919 56.0397 135.821 56.007 135.73C55.9742 135.639 55.9167 135.56 55.8416 135.503C55.7691 135.442 55.6821 135.403 55.5899 135.39C55.4977 135.377 55.4039 135.39 55.3183 135.428L31.4242 146.46C31.3552 146.491 31.2936 146.538 31.2439 146.597C31.1943 146.656 31.1578 146.726 31.137 146.801L19.3284 191.961C19.2961 192.098 19.3153 192.243 19.382 192.365C19.4487 192.488 19.5579 192.579 19.6875 192.621L19.7798 192.632Z" fill="white" fill-opacity="0.25"/>
<path d="M51.8811 183.442C52.0029 183.444 52.121 183.399 52.2134 183.317C52.3059 183.235 52.3664 183.12 52.3838 182.995L59.0319 143.596C59.0526 143.501 59.0526 143.403 59.0319 143.308L56.0361 135.737C55.9764 135.62 55.8768 135.53 55.7568 135.486C55.6368 135.441 55.505 135.444 55.3872 135.494C55.2693 135.545 55.1738 135.639 55.1193 135.759C55.0647 135.879 55.0551 136.015 55.0923 136.142L58.0265 143.596L51.4092 182.867C51.3974 182.937 51.399 183.008 51.4138 183.076C51.4286 183.145 51.4564 183.21 51.4955 183.267C51.5346 183.325 51.5842 183.374 51.6416 183.411C51.699 183.448 51.763 183.473 51.8298 183.485L51.8811 183.442Z" fill="white" fill-opacity="0.25"/>
<path d="M7.01683 160.846C7.12614 160.845 7.23243 160.808 7.32075 160.742C7.40907 160.675 7.47501 160.581 7.5093 160.473L18.6305 125.099L31.1675 147.216C31.2381 147.335 31.3508 147.42 31.4814 147.453C31.612 147.487 31.75 147.465 31.8657 147.394C31.9814 147.323 32.0656 147.207 32.1 147.072C32.1344 146.938 32.1164 146.794 32.0498 146.673L18.9383 123.544C18.8883 123.454 18.8139 123.382 18.7243 123.337C18.6348 123.291 18.5343 123.275 18.4356 123.288C18.3379 123.3 18.2453 123.34 18.1689 123.404C18.0925 123.468 18.0355 123.554 18.0046 123.65L6.53464 160.143C6.51236 160.209 6.50322 160.28 6.50778 160.35C6.51233 160.42 6.5305 160.488 6.56116 160.551C6.59182 160.614 6.63435 160.669 6.68621 160.714C6.73807 160.76 6.79818 160.793 6.86295 160.814L7.01683 160.846Z" fill="white" fill-opacity="0.25"/>
<path d="M1.50764 165.095C1.61605 165.096 1.72211 165.062 1.81059 164.997C1.89906 164.932 1.96538 164.84 2.00007 164.733L14.7012 124.386H18.528C18.664 124.386 18.7945 124.33 18.8907 124.23C18.9869 124.13 19.041 123.994 19.041 123.853C19.0357 123.712 18.9786 123.578 18.8813 123.479C18.784 123.38 18.6539 123.323 18.5177 123.321H14.3216C14.2137 123.322 14.109 123.359 14.0224 123.426C13.9358 123.493 13.8718 123.587 13.8394 123.694L1.02545 164.403C1.00317 164.469 0.994028 164.54 0.998583 164.61C1.00314 164.68 1.02127 164.748 1.05193 164.811C1.08259 164.873 1.12515 164.929 1.17701 164.974C1.22887 165.019 1.28899 165.053 1.35375 165.074L1.50764 165.095Z" fill="white" fill-opacity="0.25"/>
<path d="M22.2419 176.947C22.3326 176.949 22.4218 176.923 22.4984 176.872C22.6146 176.801 22.6997 176.686 22.7361 176.551C22.7724 176.416 22.7571 176.272 22.6933 176.148L12.4339 157.662C12.3652 157.542 12.2543 157.453 12.1242 157.416C11.9942 157.378 11.8552 157.394 11.7363 157.46C11.6193 157.533 11.5339 157.65 11.4976 157.787C11.4614 157.924 11.477 158.07 11.5413 158.195L21.852 176.681C21.8921 176.754 21.9483 176.816 22.0161 176.862C22.0839 176.909 22.1612 176.938 22.2419 176.947Z" fill="white" fill-opacity="0.25"/>
<path d="M23.9554 168.896C24.0462 168.899 24.1358 168.873 24.2118 168.822C24.3301 168.752 24.4169 168.637 24.4535 168.501C24.49 168.366 24.4732 168.22 24.4068 168.097L14.0961 149.622C14.0665 149.554 14.0236 149.494 13.97 149.444C13.9164 149.395 13.8534 149.357 13.785 149.334C13.7167 149.312 13.6445 149.304 13.5731 149.312C13.5018 149.32 13.4328 149.344 13.3708 149.381C13.3087 149.419 13.2549 149.469 13.2129 149.53C13.1708 149.59 13.1415 149.659 13.1267 149.732C13.1119 149.805 13.112 149.88 13.127 149.953C13.142 150.026 13.1715 150.094 13.2138 150.155L23.4732 168.641C23.5226 168.726 23.5939 168.795 23.6791 168.84C23.7643 168.885 23.86 168.904 23.9554 168.896Z" fill="white" fill-opacity="0.25"/>
<path d="M25.6788 160.868C25.7693 160.868 25.8582 160.842 25.9352 160.793C25.9939 160.759 26.0454 160.713 26.0866 160.657C26.1278 160.602 26.1579 160.539 26.1752 160.471C26.1924 160.404 26.1964 160.334 26.1869 160.264C26.1774 160.195 26.1546 160.129 26.1199 160.069L15.8092 141.583C15.7345 141.476 15.6244 141.402 15.5001 141.375C15.3759 141.348 15.2463 141.37 15.1365 141.436C15.0267 141.502 14.9445 141.608 14.9058 141.734C14.8671 141.859 14.8746 141.995 14.9269 142.115L25.1863 160.601C25.236 160.689 25.3086 160.761 25.3957 160.808C25.4828 160.855 25.5809 160.876 25.6788 160.868Z" fill="white" fill-opacity="0.25"/>
<path d="M27.3922 152.827C27.4828 152.828 27.5716 152.802 27.6487 152.753C27.7074 152.719 27.7589 152.673 27.8001 152.617C27.8413 152.562 27.8714 152.499 27.8887 152.431C27.9059 152.364 27.9099 152.293 27.9004 152.224C27.8909 152.155 27.8681 152.089 27.8334 152.029L17.574 133.543C17.5035 133.421 17.39 133.333 17.2577 133.297C17.1254 133.262 16.9848 133.281 16.8661 133.351C16.8074 133.385 16.7559 133.432 16.7147 133.487C16.6735 133.542 16.6434 133.605 16.6261 133.673C16.6089 133.74 16.6049 133.811 16.6144 133.88C16.6239 133.949 16.6467 134.016 16.6814 134.075L26.9921 152.561C27.0332 152.636 27.091 152.699 27.1607 152.745C27.2304 152.792 27.3098 152.82 27.3922 152.827Z" fill="white" fill-opacity="0.25"/>
<path d="M27.361 177C27.4324 176.999 27.5026 176.981 27.5662 176.947L44.6379 169.078C44.7 169.05 44.7561 169.01 44.8029 168.959C44.8497 168.908 44.8861 168.849 44.91 168.783C44.934 168.717 44.9449 168.647 44.9422 168.577C44.9395 168.507 44.9233 168.438 44.8944 168.375C44.8676 168.31 44.8288 168.252 44.7802 168.203C44.7316 168.154 44.6742 168.116 44.6113 168.09C44.5484 168.065 44.4811 168.052 44.4135 168.053C44.3459 168.055 44.2792 168.07 44.2172 168.098L27.1558 175.978C27.0198 176.006 26.9001 176.089 26.8232 176.209C26.7462 176.329 26.7183 176.476 26.7455 176.617C26.7727 176.758 26.8528 176.882 26.9682 176.962C27.0837 177.042 27.225 177.071 27.361 177.043V177Z" fill="white" fill-opacity="0.25"/>
<path d="M28.1102 169.344C28.1782 169.355 28.2474 169.355 28.3154 169.344L45.387 161.443C45.4525 161.417 45.5122 161.377 45.5625 161.327C45.6128 161.276 45.6526 161.216 45.6794 161.148C45.7062 161.081 45.7195 161.009 45.7184 160.936C45.7174 160.864 45.702 160.792 45.6732 160.726C45.6444 160.66 45.6029 160.6 45.5512 160.551C45.4994 160.502 45.4386 160.465 45.3724 160.441C45.3061 160.417 45.2359 160.408 45.1661 160.414C45.0963 160.419 45.0283 160.44 44.9664 160.474L27.905 168.343C27.7689 168.371 27.6493 168.454 27.5723 168.574C27.4954 168.694 27.4674 168.84 27.4946 168.982C27.5218 169.123 27.602 169.247 27.7174 169.327C27.8328 169.407 27.9741 169.436 28.1102 169.408V169.344Z" fill="white" fill-opacity="0.25"/>
<path d="M31.2084 161.443C31.2798 161.441 31.3499 161.423 31.4136 161.389L48.4852 153.52C48.5474 153.492 48.6035 153.452 48.6503 153.401C48.697 153.351 48.7334 153.291 48.7574 153.225C48.7813 153.16 48.7923 153.09 48.7896 153.02C48.7869 152.95 48.7706 152.881 48.7417 152.817C48.7149 152.753 48.6761 152.694 48.6276 152.646C48.579 152.597 48.5216 152.558 48.4586 152.533C48.3957 152.507 48.3285 152.494 48.2609 152.496C48.1932 152.497 48.1265 152.512 48.0646 152.54L31.0032 160.42C30.9411 160.448 30.8848 160.488 30.8378 160.539C30.7907 160.589 30.7537 160.649 30.729 160.714C30.7042 160.779 30.692 160.849 30.6933 160.919C30.6946 160.99 30.7093 161.059 30.7364 161.123C30.7775 161.218 30.8438 161.298 30.9275 161.354C31.0111 161.411 31.1085 161.442 31.2084 161.443Z" fill="white" fill-opacity="0.25"/>
<path d="M32.4602 153.36C32.5277 153.376 32.5979 153.376 32.6654 153.36L49.7371 145.47C49.8058 145.447 49.8692 145.41 49.9232 145.36C49.9772 145.311 50.0204 145.25 50.0502 145.182C50.08 145.113 50.0956 145.04 50.0961 144.965C50.0965 144.89 50.0817 144.816 50.0527 144.747C50.0237 144.679 49.9811 144.617 49.9277 144.567C49.8743 144.517 49.8113 144.479 49.7428 144.456C49.6743 144.432 49.6018 144.424 49.5301 144.432C49.4584 144.44 49.3891 144.463 49.3267 144.5L32.255 152.38C32.1929 152.408 32.1367 152.448 32.0896 152.499C32.0426 152.549 32.0056 152.609 31.9808 152.674C31.956 152.74 31.9439 152.809 31.9452 152.879C31.9465 152.95 31.9611 153.019 31.9883 153.083C32.0359 153.169 32.1048 153.24 32.1878 153.288C32.2708 153.337 32.3649 153.362 32.4602 153.36Z" fill="white" fill-opacity="0.25"/>
</svg>
