<svg width="297" height="214" viewBox="0 0 297 214" fill="none" xmlns="http://www.w3.org/2000/svg">
<path d="M296.607 188.082H0.468506V188.225H296.607V188.082Z" fill="#EBEBEB"/>
<path d="M51.1556 193.534H38.7711V193.677H51.1556V193.534Z" fill="#EBEBEB"/>
<path d="M116.158 191.981H101.831V192.125H116.158V191.981Z" fill="#EBEBEB"/>
<path d="M82.2029 195.401H70.837V195.545H82.2029V195.401Z" fill="#EBEBEB"/>
<path d="M266.934 197.893H250.41V198.036H266.934V197.893Z" fill="#EBEBEB"/>
<path d="M242.911 193.677H230.1V193.82H242.911V193.677Z" fill="#EBEBEB"/>
<path d="M193.35 195.476H164.654V195.619H193.35V195.476Z" fill="#EBEBEB"/>
<path d="M140.838 162.538H26.4753C25.5794 162.536 24.7208 162.191 24.0878 161.578C23.4549 160.965 23.0994 160.134 23.0994 159.268V3.811C23.1072 2.94963 23.4661 2.12601 24.0982 1.51905C24.7303 0.912092 25.5845 0.570812 26.4753 0.569336H140.838C141.735 0.569336 142.595 0.913885 143.23 1.52719C143.864 2.14049 144.22 2.9723 144.22 3.83964V159.268C144.22 160.135 143.864 160.967 143.23 161.58C142.595 162.193 141.735 162.538 140.838 162.538V162.538ZM26.4753 0.683883C25.6187 0.6854 24.7977 1.01553 24.1925 1.60182C23.5873 2.1881 23.2474 2.98263 23.2474 3.811V159.268C23.2474 160.096 23.5873 160.891 24.1925 161.477C24.7977 162.063 25.6187 162.393 26.4753 162.395H140.838C141.695 162.393 142.517 162.063 143.123 161.477C143.729 160.891 144.07 160.097 144.072 159.268V3.811C144.07 2.9821 143.729 2.18759 143.123 1.60147C142.517 1.01535 141.695 0.685397 140.838 0.683883H26.4753Z" fill="#EBEBEB"/>
<path d="M268.954 162.538H154.585C153.688 162.536 152.829 162.191 152.195 161.578C151.561 160.966 151.205 160.135 151.203 159.268V3.811C151.212 2.9491 151.573 2.12549 152.206 1.51869C152.839 0.911892 153.694 0.570795 154.585 0.569336H268.954C269.843 0.572317 270.696 0.914263 271.327 1.52106C271.958 2.12786 272.316 2.95061 272.324 3.811V159.268C272.324 160.133 271.969 160.963 271.337 161.576C270.706 162.189 269.849 162.535 268.954 162.538V162.538ZM154.585 0.683883C153.728 0.685397 152.906 1.01535 152.3 1.60147C151.694 2.18759 151.353 2.9821 151.351 3.811V159.268C151.353 160.097 151.694 160.891 152.3 161.477C152.906 162.063 153.728 162.393 154.585 162.395H268.954C269.811 162.393 270.632 162.063 271.239 161.477C271.845 160.891 272.186 160.097 272.188 159.268V3.811C272.186 2.9821 271.845 2.18759 271.239 1.60147C270.632 1.01535 269.811 0.685397 268.954 0.683883H154.585Z" fill="#EBEBEB"/>
<path d="M38.7712 188.082L182.701 188.082L182.701 21.9496L38.7712 21.9496L38.7712 188.082Z" fill="#F0F0F0"/>
<path d="M38.7651 188.082H52.5948L52.5948 21.9496H38.7651L38.7651 188.082Z" fill="#E0E0E0"/>
<path d="M54.9046 54.0166L180.402 54.0166V26.6572L54.9046 26.6572V54.0166Z" fill="#EBEBEB"/>
<path d="M166.318 54.0166H180.396V26.6572H166.318V54.0166Z" fill="#E6E6E6"/>
<path d="M54.9046 86.0894L180.402 86.0894V58.7299L54.9046 58.7299V86.0894Z" fill="#EBEBEB"/>
<path d="M166.318 86.0894H180.396V58.7299H166.318V86.0894Z" fill="#E6E6E6"/>
<path d="M54.9046 118.168L180.402 118.168V90.8091L54.9046 90.8091V118.168Z" fill="#EBEBEB"/>
<path d="M166.318 118.168H180.396V90.8091H166.318V118.168Z" fill="#E6E6E6"/>
<path d="M54.9046 150.242L180.402 150.242V122.882L54.9046 122.882V150.242Z" fill="#EBEBEB"/>
<path d="M166.318 150.242H180.396V122.882H166.318V150.242Z" fill="#E6E6E6"/>
<path d="M54.9046 182.314L180.402 182.314V154.955H54.9046V182.314Z" fill="#EBEBEB"/>
<path d="M166.318 182.314H180.396V154.955H166.318V182.314Z" fill="#E6E6E6"/>
<path d="M168.077 33.312H160.579V54.022H168.077V33.312Z" fill="#FAFAFA"/>
<path d="M146.909 54.0166H160.579V33.3066H146.909V54.0166Z" fill="#E6E6E6"/>
<path d="M160.087 33.312H154.857V54.022H160.087V33.312Z" fill="#FAFAFA"/>
<path d="M141.188 54.0166H154.857V33.3066H141.188V54.0166Z" fill="#E6E6E6"/>
<path d="M154.336 33.312H149.107V54.022H154.336V33.312Z" fill="#FAFAFA"/>
<path d="M135.437 54.0166H149.107V33.3066H135.437V54.0166Z" fill="#E6E6E6"/>
<path d="M145.576 35.9526H141.75V54.0223H145.576V35.9526Z" fill="#FAFAFA"/>
<path d="M131.753 54.0166H141.75V35.9469H131.753V54.0166Z" fill="#E6E6E6"/>
<path d="M91.9636 65.3853H86.7338V86.0953H91.9636V65.3853Z" fill="#FAFAFA"/>
<path d="M73.064 86.0952H86.7338V65.3852H73.064V86.0952Z" fill="#E6E6E6"/>
<path d="M86.2421 65.3853H81.0123V86.0953H86.2421V65.3853Z" fill="#FAFAFA"/>
<path d="M67.3426 86.0952H81.0123V65.3852H67.3426V86.0952Z" fill="#E6E6E6"/>
<path d="M80.4912 65.3853H75.2614V86.0953H80.4912V65.3853Z" fill="#FAFAFA"/>
<path d="M61.5916 86.0952H75.2614V65.3852H61.5916V86.0952Z" fill="#E6E6E6"/>
<path d="M71.7314 68.0254H67.9053V86.0951H71.7314V68.0254Z" fill="#FAFAFA"/>
<path d="M57.9076 86.0952H67.9053V68.0255H57.9076V86.0952Z" fill="#E6E6E6"/>
<path d="M108.991 97.4585H103.762V118.169H108.991V97.4585Z" fill="#FAFAFA"/>
<path d="M90.0918 118.168H103.762V97.4585H90.0918V118.168Z" fill="#E6E6E6"/>
<path d="M103.27 97.4585H98.0403V118.169H103.27V97.4585Z" fill="#FAFAFA"/>
<path d="M84.3705 118.168H98.0403V97.4585H84.3705V118.168Z" fill="#E6E6E6"/>
<path d="M97.519 97.4585H92.2892V118.169H97.519V97.4585Z" fill="#FAFAFA"/>
<path d="M78.6194 118.168H92.2892V97.4585H78.6194V118.168Z" fill="#E6E6E6"/>
<path d="M88.7592 100.099H84.9331V118.168H88.7592V100.099Z" fill="#FAFAFA"/>
<path d="M74.9355 118.168H84.9331V100.099H74.9355V118.168Z" fill="#E6E6E6"/>
<path d="M144.67 161.61H139.44V182.32H144.67V161.61Z" fill="#FAFAFA"/>
<path d="M125.771 182.314H139.44V161.604H125.771V182.314Z" fill="#E6E6E6"/>
<path d="M138.943 161.61H133.713V182.32H138.943V161.61Z" fill="#FAFAFA"/>
<path d="M120.043 182.314H133.713V161.604H120.043V182.314Z" fill="#E6E6E6"/>
<path d="M133.192 161.61H127.962V182.32H133.192V161.61Z" fill="#FAFAFA"/>
<path d="M114.292 182.314H127.962V161.604H114.292V182.314Z" fill="#E6E6E6"/>
<path d="M124.438 164.25H120.612V182.32H124.438V164.25Z" fill="#FAFAFA"/>
<path d="M110.614 182.314H120.612V164.245H110.614V182.314Z" fill="#E6E6E6"/>
<path d="M133.37 30.2539H130.758V54.0166H133.37V30.2539Z" fill="#F5F5F5"/>
<path d="M119.125 54.0225H130.758V30.2598H119.125V54.0225Z" fill="#E0E0E0"/>
<path d="M130.254 30.2539H127.642V54.0166H130.254V30.2539Z" fill="#F5F5F5"/>
<path d="M116.01 54.0225H127.642V30.2598H116.01V54.0225Z" fill="#E0E0E0"/>
<path d="M127.139 30.2539H124.527V54.0166H127.139V30.2539Z" fill="#F5F5F5"/>
<path d="M112.889 54.0225H124.521V30.2598H112.889V54.0225Z" fill="#E0E0E0"/>
<path d="M124.024 30.2539H121.412V54.0166H124.024V30.2539Z" fill="#F5F5F5"/>
<path d="M109.773 54.0225H121.406V30.2598H109.773V54.0225Z" fill="#E0E0E0"/>
<path d="M120.902 30.2539H118.29V54.0166H120.902V30.2539Z" fill="#F5F5F5"/>
<path d="M106.664 54.0225H118.296V30.2598H106.664V54.0225Z" fill="#E0E0E0"/>
<path d="M117.787 30.2539H115.175V54.0166H117.787V30.2539Z" fill="#F5F5F5"/>
<path d="M103.549 54.0225H115.181V30.2598H103.549V54.0225Z" fill="#E0E0E0"/>
<path d="M114.671 30.2539H112.06V54.0166H114.671V30.2539Z" fill="#F5F5F5"/>
<path d="M100.427 54.0225H112.059V30.2598H100.427V54.0225Z" fill="#E0E0E0"/>
<path d="M111.556 30.2539H108.944V54.0166H111.556V30.2539Z" fill="#F5F5F5"/>
<path d="M97.3118 54.0225H108.944V30.2598H97.3118V54.0225Z" fill="#E0E0E0"/>
<path d="M108.441 30.2539H105.829V54.0166H108.441V30.2539Z" fill="#F5F5F5"/>
<path d="M94.1964 54.0225H105.829V30.2598H94.1964V54.0225Z" fill="#E0E0E0"/>
<path d="M105.325 30.2539H102.713V54.0166H105.325V30.2539Z" fill="#F5F5F5"/>
<path d="M91.0809 54.0225H102.713V30.2598H91.0809V54.0225Z" fill="#E0E0E0"/>
<path d="M102.21 30.2539H99.5978V54.0166H102.21V30.2539Z" fill="#F5F5F5"/>
<path d="M87.9597 54.0225H99.592V30.2598H87.9597V54.0225Z" fill="#E0E0E0"/>
<path d="M99.0945 30.2539H96.4825V54.0166H99.0945V30.2539Z" fill="#F5F5F5"/>
<path d="M84.8444 54.0225H96.4767V30.2598H84.8444V54.0225Z" fill="#E0E0E0"/>
<path d="M95.9732 30.2539H93.3613V54.0166H95.9732V30.2539Z" fill="#F5F5F5"/>
<path d="M81.7348 54.0225H93.3671V30.2598H81.7348V54.0225Z" fill="#E0E0E0"/>
<path d="M92.8578 30.2539H90.2458V54.0166H92.8578V30.2539Z" fill="#F5F5F5"/>
<path d="M78.6194 54.0225H90.2517V30.2598H78.6194V54.0225Z" fill="#E0E0E0"/>
<path d="M172.051 126.479H169.439V150.242H172.051V126.479Z" fill="#F5F5F5"/>
<path d="M157.801 150.242H169.433V126.479H157.801V150.242Z" fill="#E0E0E0"/>
<path d="M168.936 126.479H166.324V150.242H168.936V126.479Z" fill="#F5F5F5"/>
<path d="M154.686 150.242H166.318V126.479H154.686V150.242Z" fill="#E0E0E0"/>
<path d="M165.815 126.479H163.203V150.242H165.815V126.479Z" fill="#F5F5F5"/>
<path d="M151.576 150.242H163.209V126.479H151.576V150.242Z" fill="#E0E0E0"/>
<path d="M162.699 126.479H160.087V150.242H162.699V126.479Z" fill="#F5F5F5"/>
<path d="M148.461 150.242H160.093V126.479H148.461V150.242Z" fill="#E0E0E0"/>
<path d="M159.584 126.479H156.972V150.242H159.584V126.479Z" fill="#F5F5F5"/>
<path d="M145.34 150.242H156.972V126.479H145.34V150.242Z" fill="#E0E0E0"/>
<path d="M156.468 126.479H153.856V150.242H156.468V126.479Z" fill="#F5F5F5"/>
<path d="M142.224 150.242H153.856V126.479H142.224V150.242Z" fill="#E0E0E0"/>
<path d="M153.353 126.479H150.741V150.242H153.353V126.479Z" fill="#F5F5F5"/>
<path d="M139.109 150.242H150.741V126.479H139.109V150.242Z" fill="#E0E0E0"/>
<path d="M150.238 126.479H147.626V150.242H150.238V126.479Z" fill="#F5F5F5"/>
<path d="M135.993 150.242H147.626V126.479H135.993V150.242Z" fill="#E0E0E0"/>
<path d="M147.122 126.479H144.51V150.242H147.122V126.479Z" fill="#F5F5F5"/>
<path d="M132.872 150.242H144.505V126.479H132.872V150.242Z" fill="#E0E0E0"/>
<path d="M144.007 126.479H141.395V150.242H144.007V126.479Z" fill="#F5F5F5"/>
<path d="M129.757 150.242H141.389V126.479H129.757V150.242Z" fill="#E0E0E0"/>
<path d="M140.886 126.479H138.274V150.242H140.886V126.479Z" fill="#F5F5F5"/>
<path d="M126.647 150.242H138.279V126.479H126.647V150.242Z" fill="#E0E0E0"/>
<path d="M137.77 126.479H135.158V150.242H137.77V126.479Z" fill="#F5F5F5"/>
<path d="M123.532 150.242H135.164V126.479H123.532V150.242Z" fill="#E0E0E0"/>
<path d="M134.655 126.479H132.043V150.242H134.655V126.479Z" fill="#F5F5F5"/>
<path d="M120.411 150.242H132.043V126.479H120.411V150.242Z" fill="#E0E0E0"/>
<path d="M131.539 126.479H128.927V150.242H131.539V126.479Z" fill="#F5F5F5"/>
<path d="M117.295 150.242H128.927V126.479H117.295V150.242Z" fill="#E0E0E0"/>
<path d="M107.209 162.395H105.296V182.315H107.209V162.395Z" fill="#F5F5F5"/>
<path d="M96.7847 182.314H105.302V162.395H96.7847V182.314Z" fill="#E0E0E0"/>
<path d="M104.928 162.395H103.015V182.315H104.928V162.395Z" fill="#F5F5F5"/>
<path d="M94.4984 182.314H103.015V162.395H94.4984V182.314Z" fill="#E0E0E0"/>
<path d="M102.648 162.395H100.735V182.315H102.648V162.395Z" fill="#F5F5F5"/>
<path d="M92.2181 182.314H100.735V162.395H92.2181V182.314Z" fill="#E0E0E0"/>
<path d="M100.368 162.395H98.4548V182.315H100.368V162.395Z" fill="#F5F5F5"/>
<path d="M89.9378 182.314H98.4548V162.395H89.9378V182.314Z" fill="#E0E0E0"/>
<path d="M98.0817 162.395H96.1687V182.315H98.0817V162.395Z" fill="#F5F5F5"/>
<path d="M87.6576 182.314H96.1746V162.395H87.6576V182.314Z" fill="#E0E0E0"/>
<path d="M95.8014 162.395H93.8884V182.315H95.8014V162.395Z" fill="#F5F5F5"/>
<path d="M85.3714 182.314H93.8884V162.395H85.3714V182.314Z" fill="#E0E0E0"/>
<path d="M93.5213 162.395H91.6083V182.315H93.5213V162.395Z" fill="#F5F5F5"/>
<path d="M83.0913 182.314H91.6083V162.395H83.0913V182.314Z" fill="#E0E0E0"/>
<path d="M91.2409 162.395H89.3278V182.315H91.2409V162.395Z" fill="#F5F5F5"/>
<path d="M80.8109 182.314H89.3278V162.395H80.8109V182.314Z" fill="#E0E0E0"/>
<path d="M88.9548 162.395H87.0417V182.315H88.9548V162.395Z" fill="#F5F5F5"/>
<path d="M78.5307 182.314H87.0476V162.395H78.5307V182.314Z" fill="#E0E0E0"/>
<path d="M86.6745 162.395H84.7615V182.315H86.6745V162.395Z" fill="#F5F5F5"/>
<path d="M76.2445 182.314H84.7615V162.395H76.2445V182.314Z" fill="#E0E0E0"/>
<path d="M84.3943 162.395H82.4813V182.315H84.3943V162.395Z" fill="#F5F5F5"/>
<path d="M73.9643 182.314H82.4813V162.395H73.9643V182.314Z" fill="#E0E0E0"/>
<path d="M82.1139 162.395H80.2009V182.315H82.1139V162.395Z" fill="#F5F5F5"/>
<path d="M71.6839 182.314H80.2009V162.395H71.6839V182.314Z" fill="#E0E0E0"/>
<path d="M79.8278 162.395H77.9148V182.315H79.8278V162.395Z" fill="#F5F5F5"/>
<path d="M69.4036 182.314H77.9205V162.395H69.4036V182.314Z" fill="#E0E0E0"/>
<path d="M77.5475 162.395H75.6345V182.315H77.5475V162.395Z" fill="#F5F5F5"/>
<path d="M67.1175 182.314H75.6345V162.395H67.1175V182.314Z" fill="#E0E0E0"/>
<path d="M84.4297 48.8677H64.6951V54.0165H84.4297V48.8677Z" fill="#F5F5F5"/>
<path d="M57.0606 54.0225H64.6951V48.8736H57.0606V54.0225Z" fill="#E0E0E0"/>
<path d="M83.6598 41.2793H63.9251V44.9219H83.6598V41.2793Z" fill="#F5F5F5"/>
<path d="M56.2907 44.9272H63.9251V41.2847H56.2907V44.9272Z" fill="#E0E0E0"/>
<path d="M86.2421 44.9214H66.5074V48.8675H86.2421V44.9214Z" fill="#F0F0F0"/>
<path d="M58.8729 48.8735H66.5074V44.9274H58.8729V48.8735Z" fill="#E0E0E0"/>
<path d="M137.693 113.02H119.149V118.168H137.693V113.02Z" fill="#F5F5F5"/>
<path d="M111.976 118.168H119.149V113.02H111.976V118.168Z" fill="#E0E0E0"/>
<path d="M136.971 105.431H118.426V109.073H136.971V105.431Z" fill="#F5F5F5"/>
<path d="M111.254 109.074H118.426V105.431H111.254V109.074Z" fill="#E0E0E0"/>
<path d="M139.393 109.074H120.849V113.02H139.393V109.074Z" fill="#F0F0F0"/>
<path d="M113.682 113.02H120.855V109.073H113.682V113.02Z" fill="#E0E0E0"/>
<path d="M84.5422 147.361H65.998V150.242H84.5422V147.361Z" fill="#F5F5F5"/>
<path d="M58.8314 150.247H66.0039V147.366H58.8314V150.247Z" fill="#E0E0E0"/>
<path d="M83.8197 143.122H65.2755V145.161H83.8197V143.122Z" fill="#F5F5F5"/>
<path d="M58.103 145.155H65.2755V143.116H58.103V145.155Z" fill="#E0E0E0"/>
<path d="M86.2421 145.155H67.6979V147.36H86.2421V145.155Z" fill="#F0F0F0"/>
<path d="M60.5254 147.367H67.6979V145.162H60.5254V147.367Z" fill="#E0E0E0"/>
<path d="M166.111 82.4526H144.694V86.0952H166.111V82.4526Z" fill="#F5F5F5"/>
<path d="M136.408 86.0894H144.694V82.4468H136.408V86.0894Z" fill="#E0E0E0"/>
<path d="M165.276 77.0864H143.859V79.6637H165.276V77.0864Z" fill="#F5F5F5"/>
<path d="M135.573 79.6582H143.859V77.0809H135.573V79.6582Z" fill="#E0E0E0"/>
<path d="M168.077 79.6636H146.66V82.4528H168.077V79.6636Z" fill="#F0F0F0"/>
<path d="M138.374 82.4526H146.66V79.6634H138.374V82.4526Z" fill="#E0E0E0"/>
<path d="M174.373 100.288H173.064V118.168H174.373V100.288Z" fill="#FAFAFA"/>
<path d="M164.731 118.168H173.064V100.288H164.731V118.168Z" fill="#E0E0E0"/>
<path d="M172.762 102.023H169.576V118.169H172.762V102.023Z" fill="#F5F5F5"/>
<path d="M161.242 118.168H169.576V102.023H161.242V118.168Z" fill="#E0E0E0"/>
<path d="M169.256 101.038H166.069V118.169H169.256V101.038Z" fill="#F0F0F0"/>
<path d="M157.736 118.168H166.069V101.038H157.736V118.168Z" fill="#E0E0E0"/>
<path d="M162.587 102.166H165.779L163.327 118.168H160.141L162.587 102.166Z" fill="#FAFAFA"/>
<path d="M162.587 102.166H154.253L151.807 118.168H160.14L162.587 102.166Z" fill="#E6E6E6"/>
<path d="M128.927 64.5605H127.619V85.9979H128.927V64.5605Z" fill="#FAFAFA"/>
<path d="M119.291 85.998H127.619V64.5607H119.291V85.998Z" fill="#E0E0E0"/>
<path d="M127.322 66.6396H124.136V85.998H127.322V66.6396Z" fill="#F5F5F5"/>
<path d="M115.803 85.998H124.13V66.6397H115.803V85.998Z" fill="#E0E0E0"/>
<path d="M123.816 65.4541H120.63V85.998H123.816V65.4541Z" fill="#F0F0F0"/>
<path d="M112.308 86.0039H120.636V65.46H112.308V86.0039Z" fill="#E0E0E0"/>
<path d="M117.153 66.8115H120.34L117.893 85.998H114.707L117.153 66.8115Z" fill="#FAFAFA"/>
<path d="M117.153 66.8115H108.826L106.38 85.998H114.707L117.153 66.8115Z" fill="#E6E6E6"/>
<path d="M126.825 129.171H125.516V150.608H126.825V129.171Z" fill="#FAFAFA"/>
<path d="M117.189 150.603H125.516V129.165H117.189V150.603Z" fill="#E0E0E0"/>
<path d="M125.214 131.25H122.028V150.608H125.214V131.25Z" fill="#F5F5F5"/>
<path d="M113.706 150.608H122.033V131.25H113.706V150.608Z" fill="#E0E0E0"/>
<path d="M121.714 130.064H118.527V150.608H121.714V130.064Z" fill="#F0F0F0"/>
<path d="M110.2 150.608H118.527V130.064H110.2V150.608Z" fill="#E0E0E0"/>
<path d="M115.044 131.421H118.231L115.785 150.608H112.598L115.044 131.421Z" fill="#FAFAFA"/>
<path d="M115.045 131.421H106.723L104.277 150.608H112.599L115.045 131.421Z" fill="#E6E6E6"/>
<path d="M220.417 137.864H200.854V145.195H220.417V137.864Z" fill="#E0E0E0"/>
<path d="M205.166 145.196H200.854V188.076H205.166V145.196Z" fill="#E0E0E0"/>
<path d="M208.92 145.196H205.165V188.076H208.92V145.196Z" fill="#E6E6E6"/>
<path d="M228.104 145.196H223.793V188.076H228.104V145.196Z" fill="#E0E0E0"/>
<path d="M231.854 145.196H228.098V188.076H231.854V145.196Z" fill="#E6E6E6"/>
<path d="M220.423 145.202H247.117V137.871H220.423V145.202Z" fill="#F0F0F0"/>
<path d="M220.417 145.196H216.111L227.844 188.082H232.15L220.417 145.196Z" fill="#E0E0E0"/>
<path d="M220.417 145.196H224.178L235.911 188.082H232.15L220.417 145.196Z" fill="#F0F0F0"/>
<path d="M243.356 145.196H239.044L250.777 188.082H255.089L243.356 145.196Z" fill="#E0E0E0"/>
<path d="M243.356 145.196H247.111L258.844 188.082H255.089L243.356 145.196Z" fill="#F0F0F0"/>
<path d="M224.29 154.325H248.313L247.815 152.389H223.793L224.29 154.325Z" fill="#F0F0F0"/>
<path d="M226.582 163.197H250.605L250.108 161.261H226.085L226.582 163.197Z" fill="#F0F0F0"/>
<path d="M228.868 172.068H252.891L252.394 170.138H228.371L228.868 172.068Z" fill="#F0F0F0"/>
<path d="M231.161 180.94H255.183L254.686 179.01H230.657L231.161 180.94Z" fill="#F0F0F0"/>
<path d="M230.989 36.4109C227.773 36.4109 225.155 34.75 225.155 32.7111C225.155 30.6722 229.046 29.0112 230.989 29.0112C232.931 29.0112 236.829 30.6092 236.829 32.7111C236.829 34.813 234.211 36.4109 230.989 36.4109ZM230.989 29.4694C229.212 29.4694 225.658 30.97 225.658 32.7111C225.658 34.4522 228.063 35.9528 230.989 35.9528C233.915 35.9528 236.355 34.498 236.355 32.7111C236.355 30.9242 232.754 29.4694 230.989 29.4694Z" fill="#E6E6E6"/>
<path d="M256.131 32.2588H205.853V105.425H256.131V32.2588Z" fill="#F0F0F0"/>
<path d="M205.195 105.431H205.853V32.2642H205.195V105.431Z" fill="#E6E6E6"/>
<path d="M250.7 37.5737H211.284V100.11H250.7V37.5737Z" fill="#FAFAFA"/>
<path d="M250.7 37.5737H250.072V100.11H250.7V37.5737Z" fill="#E6E6E6"/>
<path d="M148.538 213.946C211.96 213.946 263.374 211.043 263.374 207.463C263.374 203.882 211.96 200.979 148.538 200.979C85.1153 200.979 33.7012 203.882 33.7012 207.463C33.7012 211.043 85.1153 213.946 148.538 213.946Z" fill="#F5F5F5"/>
<path d="M152.737 17.8601C152.223 17.5978 151.66 17.4363 151.081 17.3847C150.502 17.3331 149.918 17.3926 149.363 17.5597C148.808 17.7267 148.292 17.9981 147.846 18.3583C147.399 18.7185 147.031 19.1603 146.761 19.6585C145.726 19.157 144.529 19.0684 143.427 19.4115C142.325 19.7547 141.407 20.5023 140.869 21.4935C140.331 22.4848 140.217 23.6405 140.552 24.7122C140.886 25.7838 141.642 26.6859 142.656 27.2243L150.48 31.1933L154.585 23.6275C154.856 23.1316 155.022 22.5889 155.076 22.0305C155.13 21.4722 155.069 20.9091 154.897 20.3734C154.726 19.8378 154.447 19.3401 154.076 18.9088C153.705 18.4776 153.25 18.1212 152.737 17.8601Z" fill="#90CAF9"/>
<path d="M145.049 34.7955C144.723 34.1994 144.166 33.7528 143.499 33.5541C142.833 33.3554 142.112 33.4208 141.496 33.736C141.157 33.1636 140.602 32.7408 139.947 32.5567C139.292 32.3726 138.589 32.4416 137.986 32.7492C137.383 33.0568 136.927 33.5789 136.714 34.2054C136.502 34.8318 136.549 35.5137 136.846 36.1071L139.298 40.5973L143.948 38.2262C144.564 37.912 145.025 37.3743 145.232 36.7312C145.439 36.088 145.373 35.3919 145.049 34.7955V34.7955Z" fill="#90CAF9"/>
<path d="M116.59 42.625C112.889 46.995 113.546 50.9754 114.594 54.6524C110.016 51.9835 106.077 57.98 107.339 60.3797C101.505 64.2399 106.551 71.3532 112.782 69.6293C115.743 76.2329 130.296 76.7942 130.225 72.9798C142.189 75.5743 137.036 62.8195 133.411 61.6512C138.404 60.7348 137.669 54.8357 134.252 52.854C138.244 48.2721 136.266 42.7396 131.184 42.0294C126.552 36.8977 119.605 39.0683 116.59 42.625Z" fill="#263238"/>
<path d="M139.748 76.5137C139.748 78.8046 139.843 81.1757 140.021 83.4781C140.157 85.7384 140.478 87.9848 140.98 90.1963C141.033 90.4655 141.11 90.7175 141.187 90.9695L141.383 91.6281C141.417 91.7719 141.479 91.9081 141.567 92.029C141.697 92.2467 142.52 92.4872 143.515 92.4299C145.783 92.2077 148.005 91.6695 150.113 90.832L151.558 93.1974C150.966 93.6212 150.463 93.9649 149.888 94.3429C149.314 94.7209 148.739 95.013 148.111 95.3108C146.848 95.9482 145.504 96.4219 144.113 96.7197C143.306 96.8879 142.48 96.9514 141.655 96.9087C140.637 96.8513 139.648 96.5523 138.777 96.0382C137.835 95.4593 137.088 94.6273 136.627 93.6441L136.479 93.3177L136.384 93.0771L136.195 92.5903C136.07 92.2696 135.946 91.9431 135.851 91.6224C135.08 89.1272 134.568 86.564 134.323 83.9707C134.193 82.7107 134.08 81.4564 134.039 80.1964C133.997 78.9364 133.962 77.7107 134.009 76.3877L139.748 76.5137Z" fill="#DDB692"/>
<path d="M137.089 70.2649C141.934 74.3714 141.235 81.4732 141.235 81.4732L131.954 83.0024C131.954 83.0024 129.644 75.6715 130.959 73.1228C132.345 70.4424 134.359 67.9568 137.089 70.2649Z" fill="#90CAF9"/>
<path opacity="0.3" d="M137.089 70.2649C141.934 74.3714 141.235 81.4732 141.235 81.4732L131.954 83.0024C131.954 83.0024 129.644 75.6715 130.959 73.1228C132.345 70.4424 134.359 67.9568 137.089 70.2649Z" fill="white"/>
<path opacity="0.4" d="M134.495 76.8345L131.012 79.1655C131.421 81.2502 131.972 83.0028 131.972 83.0028L135.146 82.4816C135.13 80.5826 134.911 78.6903 134.495 76.8345V76.8345Z" fill="#90CAF9"/>
<path d="M149.574 91.3246L153.128 88.2891L154.597 93.4838C154.597 93.4838 151.635 94.7781 149.047 93.2146L149.574 91.3246Z" fill="#DDB692"/>
<path d="M157.831 88.083L158.174 92.1379L154.62 93.4839L153.152 88.2892L157.831 88.083Z" fill="#DDB692"/>
<path d="M99.7164 203.07L104.928 203.557L108.512 191.719L103.294 191.232L99.7164 203.07Z" fill="#DDB692"/>
<path d="M66.5192 183.122L70.1321 186.868L79.0577 178.552L75.4389 174.806L66.5192 183.122Z" fill="#DDB692"/>
<path d="M70.9909 186.85L68.4382 181.621C68.3944 181.532 68.3192 181.46 68.2259 181.419C68.1326 181.378 68.0273 181.371 67.9288 181.398L63.3565 182.755C63.242 182.794 63.1373 182.855 63.0492 182.935C62.9611 183.016 62.8915 183.113 62.8451 183.221C62.7986 183.33 62.7764 183.446 62.7798 183.563C62.7832 183.68 62.8122 183.795 62.8649 183.901C63.7888 185.711 64.3278 186.535 65.4531 188.838C66.1402 190.252 67.455 193.482 68.4145 195.436C69.374 197.389 71.4173 196.581 71.2041 195.688C70.2328 191.678 70.6118 189.491 71.0797 187.772C71.1654 187.465 71.1339 187.137 70.9909 186.85Z" fill="#263238"/>
<path d="M105.479 202.022H99.1596C99.0461 202.023 98.936 202.06 98.8462 202.128C98.7564 202.195 98.6918 202.289 98.6621 202.395L97.288 207.223C97.2548 207.337 97.2496 207.457 97.2729 207.573C97.2961 207.69 97.3472 207.799 97.422 207.893C97.4967 207.987 97.5932 208.063 97.7036 208.115C97.814 208.166 97.9354 208.192 98.058 208.191C100.285 208.191 101.339 208.191 104.117 208.191H112.61C114.92 208.191 115.4 205.934 114.446 205.728C110.164 204.812 107.694 203.552 106.374 202.343C106.129 202.13 105.809 202.015 105.479 202.022Z" fill="#263238"/>
<path opacity="0.2" d="M108.512 191.719L106.664 197.824H101.298L103.288 191.238L108.512 191.719Z" fill="black"/>
<path opacity="0.2" d="M75.4389 174.806L79.0577 178.552L74.4557 182.836L70.8369 179.09L75.4389 174.806Z" fill="black"/>
<path d="M135.596 69.4401C135.596 69.4401 137.835 70.5856 128.086 99.6919L106.705 96.5246C108.399 88.1628 109.228 82.9795 107.801 65.0988C110.889 64.9433 113.985 65.0046 117.064 65.2821C120.331 65.5389 123.575 66.0193 126.772 66.7197C129.759 67.4809 132.705 68.3889 135.596 69.4401Z" fill="#90CAF9"/>
<path opacity="0.3" d="M135.596 69.4401C135.596 69.4401 137.835 70.5856 128.086 99.6919L106.705 96.5246C108.399 88.1628 109.228 82.9795 107.801 65.0988C110.889 64.9433 113.985 65.0046 117.064 65.2821C120.331 65.5389 123.575 66.0193 126.772 66.7197C129.759 67.4809 132.705 68.3889 135.596 69.4401Z" fill="white"/>
<path d="M119.7 54.8584C119.836 57.9683 119.57 63.5926 117.064 65.2821C117.064 65.2821 122.057 71.439 124.367 77.5901C127.281 74.0678 126.772 66.7082 126.772 66.7082C123.413 65.3909 123.899 62.9053 124.882 60.6487L119.7 54.8584Z" fill="#DDB692"/>
<path opacity="0.2" d="M121.808 57.2241L124.876 60.6605C124.633 61.184 124.435 61.7262 124.284 62.2814C122.981 61.8976 121.163 60.4486 121.234 59.0798C121.311 58.4334 121.505 57.8052 121.808 57.2241V57.2241Z" fill="black"/>
<path d="M117.218 49.8529C118.213 54.8701 118.527 57.0121 121.512 59.2801C126.013 62.7165 132.173 60.4256 132.765 55.2022C133.281 50.5173 131.581 43.0947 126.173 41.7258C124.985 41.4111 123.733 41.3965 122.537 41.6834C121.341 41.9704 120.241 42.5492 119.343 43.3647C118.444 44.1801 117.777 45.2048 117.405 46.3408C117.033 47.4767 116.969 48.686 117.218 49.8529V49.8529Z" fill="#DDB692"/>
<path d="M116.099 44.9623C114.055 48.2097 129.247 44.2865 130.225 42.9291C128.507 40.7069 125.528 40.2201 122.525 40.8615C119.522 41.503 116.975 43.5706 116.099 44.9623Z" fill="#263238"/>
<path d="M120.026 43.9139C121.625 45.8612 122.851 51.2163 118.053 53.8165C115.051 50.9242 115.122 49.332 115.051 47.7741C114.979 46.2163 118.272 41.8063 120.026 43.9139Z" fill="#263238"/>
<path d="M116.513 54.0111C116.931 54.9112 117.699 55.6152 118.651 55.9699C119.919 56.428 120.671 55.357 120.428 54.1428C120.197 53.0489 119.244 51.4911 117.941 51.5541C117.651 51.5715 117.371 51.6587 117.126 51.8077C116.88 51.9567 116.678 52.1627 116.536 52.4071C116.394 52.6514 116.317 52.9261 116.313 53.2063C116.309 53.4865 116.378 53.7632 116.513 54.0111V54.0111Z" fill="#DDB692"/>
<path d="M128.086 99.6924C128.086 99.6924 133.245 131.267 126.902 152.899C122.649 167.384 108.908 196.324 108.908 196.324L99.7518 195.51C99.7518 195.51 110.744 164.927 113.41 152.796C117.976 132.04 112.409 97.3613 112.409 97.3613L128.086 99.6924Z" fill="#263238"/>
<path opacity="0.2" d="M119.273 105.442L114.186 112.143C115.005 120.519 115.313 128.933 115.11 137.344C122.341 126.605 120.304 111.445 119.273 105.442Z" fill="black"/>
<path d="M110.217 196.518L98.8635 196.238L99.5209 192.864L111.106 193.391L110.217 196.518Z" fill="#90CAF9"/>
<path d="M123.407 99.0793C123.407 99.0793 115.619 130.58 106.516 148.735C99.1596 163.38 76.6175 182.744 76.6175 182.744L71.8793 177.343C71.8793 177.343 87.5154 156.593 92.994 146.857C106.421 122.985 98.4133 104.738 106.717 96.5249L123.407 99.0793Z" fill="#263238"/>
<path d="M77.0914 183.46L70.9318 176.839L73.3127 174.107L79.8278 181.284L77.0914 183.46Z" fill="#90CAF9"/>
<path d="M106.581 95.2651L105.325 96.9833C105.225 97.115 105.379 97.2926 105.627 97.3269L128.045 100.643C128.241 100.643 128.412 100.603 128.442 100.488L128.928 98.6671C128.963 98.5411 128.809 98.4094 128.602 98.375L106.954 95.1735C106.889 95.1563 106.82 95.1557 106.755 95.1718C106.69 95.1878 106.63 95.22 106.581 95.2651V95.2651Z" fill="#90CAF9"/>
<path d="M109.116 98.037L108.523 97.9511C108.411 97.9511 108.328 97.8652 108.352 97.7965L109.003 95.4311C109.003 95.3623 109.134 95.3165 109.246 95.3337L109.838 95.4196C109.957 95.4196 110.034 95.5112 110.016 95.58L109.359 97.9339C109.341 98.0141 109.234 98.0542 109.116 98.037Z" fill="#263238"/>
<path d="M126.387 100.591L125.794 100.505C125.676 100.505 125.599 100.419 125.617 100.351L126.268 97.9853C126.268 97.9165 126.398 97.8764 126.517 97.8936L127.109 97.9738C127.228 97.9738 127.305 98.0654 127.287 98.1342L126.635 100.5C126.624 100.568 126.499 100.608 126.387 100.591Z" fill="#263238"/>
<path d="M117.739 99.3144L117.147 99.2285C117.029 99.2285 116.952 99.1426 116.969 99.0738L117.627 96.7084C117.627 96.6397 117.751 96.5939 117.87 96.611L118.462 96.697C118.575 96.697 118.657 96.7886 118.634 96.8573L117.982 99.2227C117.976 99.2915 117.864 99.3316 117.739 99.3144Z" fill="#263238"/>
<path d="M125.866 50.2306C125.919 50.643 126.191 50.9465 126.458 50.9122C126.724 50.8778 126.92 50.517 126.861 50.1046C126.801 49.6922 126.535 49.3887 126.268 49.4231C126.002 49.4574 125.812 49.824 125.866 50.2306Z" fill="#263238"/>
<path d="M130.681 49.6295C130.734 50.0419 131.006 50.3455 131.273 50.3111C131.539 50.2767 131.735 49.9159 131.676 49.5035C131.616 49.0912 131.35 48.7876 131.083 48.822C130.817 48.8564 130.627 49.2172 130.681 49.6295Z" fill="#263238"/>
<path d="M130.965 48.8567L131.948 48.4443C131.948 48.4443 131.527 49.2863 130.965 48.8567Z" fill="#263238"/>
<path d="M128.992 50.5405C129.499 51.4319 130.129 52.2526 130.864 52.9804C130.667 53.1578 130.433 53.2914 130.177 53.3715C129.921 53.4517 129.65 53.4765 129.383 53.4443L128.992 50.5405Z" fill="#630F0F"/>
<path d="M127.287 55.2596C126.401 55.2124 125.567 54.8419 124.953 54.2229C124.941 54.2133 124.932 54.2013 124.925 54.1877C124.919 54.1741 124.915 54.1593 124.915 54.1443C124.915 54.1292 124.918 54.1144 124.925 54.1007C124.931 54.087 124.941 54.0749 124.952 54.0651C124.964 54.0554 124.978 54.0483 124.993 54.0443C125.008 54.0403 125.024 54.0395 125.039 54.0419C125.054 54.0444 125.069 54.0501 125.082 54.0586C125.095 54.0671 125.105 54.0782 125.113 54.0912C125.495 54.4624 125.963 54.741 126.478 54.9043C126.992 55.0675 127.539 55.1108 128.075 55.0305C128.088 55.028 128.102 55.0284 128.116 55.0314C128.13 55.0345 128.142 55.0403 128.153 55.0483C128.165 55.0564 128.174 55.0666 128.181 55.0783C128.187 55.0901 128.192 55.103 128.193 55.1164C128.196 55.1296 128.195 55.1432 128.192 55.1563C128.189 55.1694 128.183 55.1817 128.175 55.1925C128.166 55.2033 128.156 55.2122 128.144 55.2188C128.132 55.2255 128.118 55.2296 128.104 55.2309C127.833 55.2641 127.56 55.2737 127.287 55.2596V55.2596Z" fill="#263238"/>
<path d="M123.455 48.1345C123.416 48.1308 123.379 48.1169 123.348 48.0944C123.325 48.0795 123.306 48.0604 123.291 48.0381C123.276 48.0159 123.266 47.991 123.261 47.9649C123.256 47.9388 123.256 47.912 123.262 47.886C123.268 47.8601 123.279 47.8355 123.295 47.8138C123.512 47.4967 123.804 47.2344 124.147 47.0491C124.49 46.8637 124.874 46.7607 125.267 46.7485C125.295 46.7493 125.323 46.7553 125.348 46.7664C125.374 46.7775 125.397 46.7933 125.416 46.813C125.435 46.8326 125.451 46.8558 125.461 46.8811C125.471 46.9064 125.475 46.9334 125.474 46.9604C125.471 47.0141 125.447 47.0645 125.406 47.1009C125.365 47.1373 125.311 47.1567 125.255 47.1552C124.936 47.1731 124.625 47.2633 124.349 47.4185C124.072 47.5736 123.837 47.7895 123.662 48.0486C123.639 48.0802 123.608 48.105 123.571 48.1202C123.534 48.1354 123.494 48.1404 123.455 48.1345Z" fill="#263238"/>
<path d="M132.469 46.7489C132.436 46.7572 132.402 46.7572 132.369 46.7489C132.102 46.5716 131.795 46.4575 131.474 46.4157C131.153 46.3739 130.827 46.4057 130.521 46.5084C130.47 46.5298 130.412 46.5309 130.36 46.5117C130.308 46.4924 130.266 46.4542 130.242 46.4053C130.221 46.3567 130.219 46.3016 130.239 46.2523C130.259 46.2029 130.299 46.1632 130.349 46.1418C130.717 46.0073 131.114 45.9611 131.505 46.0069C131.896 46.0528 132.269 46.1895 132.594 46.4053C132.64 46.4346 132.673 46.4804 132.685 46.5328C132.697 46.5852 132.688 46.6402 132.659 46.6859C132.635 46.7106 132.605 46.7293 132.572 46.7403C132.539 46.7513 132.504 46.7543 132.469 46.7489Z" fill="#263238"/>
<path d="M110.354 73.0771C109.465 74.3199 108.524 75.5914 107.641 76.8686C106.759 78.1458 105.864 79.4058 104.982 80.6944C104.099 81.9831 103.288 83.2603 102.536 84.5489C102.157 85.1904 101.795 85.8318 101.481 86.4561L101.256 86.92L101.197 87.0346V87.0919C101.197 87.0919 101.197 87.1434 101.197 87.0919C101.215 87.0417 101.226 86.9898 101.233 86.9372C101.242 86.8688 101.242 86.7995 101.233 86.731C101.254 86.4391 101.184 86.1478 101.031 85.8948C100.907 85.7116 100.854 85.6829 100.848 85.6829C100.967 85.795 101.105 85.8861 101.256 85.9521C101.533 86.0864 101.818 86.2049 102.109 86.3072C102.793 86.5348 103.489 86.726 104.194 86.8799C105.663 87.2465 107.215 87.51 108.778 87.762C111.905 88.243 115.122 88.6497 118.302 89.0048L118.255 91.7539C114.95 91.9697 111.636 91.9965 108.328 91.8341C106.635 91.7567 104.947 91.5961 103.27 91.353C102.379 91.2119 101.497 91.0207 100.629 90.7802C100.142 90.6554 99.6653 90.4985 99.2011 90.3106C98.5985 90.081 98.0353 89.7643 97.5309 89.3713C97.1382 89.0636 96.807 88.6889 96.5537 88.266C96.2023 87.6716 96.0395 86.9904 96.0858 86.3072C96.0974 86.1378 96.1211 85.9694 96.1568 85.8032C96.1924 85.66 96.2338 85.5111 96.2812 85.3679L96.3286 85.2362L96.3641 85.156L96.4234 85.0014L96.6662 84.3771C97.0097 83.5696 97.3651 82.7964 97.7501 82.0518C98.52 80.5684 99.3255 79.1366 100.19 77.7563C101.055 76.376 101.937 75.0187 102.844 73.6842C103.75 72.3497 104.697 71.0496 105.716 69.7495L110.354 73.0771Z" fill="#DDB692"/>
<path d="M116.697 89.5659L121.032 87.6816L120.884 92.2119C120.884 92.2119 117.881 93.0538 116.235 91.6392L116.697 89.5659Z" fill="#DDB692"/>
<path d="M123.567 88.1685L122.667 92.1375L120.884 92.2119L121.032 87.6816L123.567 88.1685Z" fill="#DDB692"/>
<path opacity="0.4" d="M110.857 74.6924L108.488 76.5881C108.541 78.3063 108.553 79.8413 108.535 81.2616C109.969 80.3223 111.076 76.5309 110.857 74.6924Z" fill="#90CAF9"/>
<path d="M107.801 65.0988C105.136 65.3795 100.948 72.4584 100.948 72.4584L108.358 79.818C108.358 79.818 112.859 73.4493 112.806 70.0816C112.758 67.2752 111.224 64.7151 107.801 65.0988Z" fill="#90CAF9"/>
<path opacity="0.3" d="M107.801 65.0988C105.136 65.3795 100.948 72.4584 100.948 72.4584L108.358 79.818C108.358 79.818 112.859 73.4493 112.806 70.0816C112.758 67.2752 111.224 64.7151 107.801 65.0988Z" fill="white"/>
<path d="M71.8261 189.628C71.7563 189.627 71.6876 189.611 71.6247 189.582C71.0324 189.336 70.6712 188.185 70.5231 187.515C70.5174 187.496 70.5184 187.475 70.5259 187.456C70.5334 187.438 70.547 187.422 70.5645 187.412C70.5812 187.401 70.6008 187.395 70.6208 187.395C70.6409 187.395 70.6605 187.401 70.6771 187.412C70.8666 187.52 72.4895 188.494 72.5013 189.13C72.5029 189.2 72.4851 189.269 72.4497 189.331C72.4143 189.392 72.3626 189.443 72.2999 189.479C72.1638 189.579 71.9969 189.631 71.8261 189.628V189.628ZM70.7837 187.715C71.0147 188.637 71.376 189.256 71.7017 189.393C71.7809 189.423 71.8669 189.433 71.9511 189.421C72.0353 189.409 72.1148 189.376 72.1815 189.325C72.2148 189.307 72.2428 189.282 72.2626 189.25C72.2824 189.219 72.2932 189.184 72.294 189.147C72.2822 188.752 71.3404 188.065 70.7837 187.715V187.715Z" fill="#90CAF9"/>
<path d="M72.1932 188.059C71.6197 188.02 71.0629 187.855 70.5645 187.578C70.5491 187.568 70.537 187.554 70.5297 187.538C70.5223 187.522 70.52 187.504 70.523 187.486C70.5232 187.469 70.529 187.452 70.5396 187.437C70.5502 187.423 70.5651 187.412 70.5822 187.406C70.6415 187.378 72.0215 186.753 72.7204 187.045C72.8073 187.079 72.8853 187.131 72.9489 187.197C73.0124 187.263 73.0598 187.343 73.0876 187.429C73.1287 187.513 73.1388 187.607 73.1161 187.697C73.0935 187.787 73.0394 187.866 72.9632 187.922C72.7301 188.051 72.4586 188.099 72.1932 188.059ZM70.8547 187.486C71.4114 187.761 72.5071 187.973 72.8388 187.738C72.8921 187.698 72.9454 187.635 72.8921 187.469C72.8727 187.41 72.8397 187.357 72.7955 187.312C72.7514 187.267 72.6973 187.233 72.6374 187.212C72.1636 187.034 71.2456 187.355 70.8547 187.509V187.486Z" fill="#90CAF9"/>
<path d="M108.263 203.007C107.682 202.994 107.105 202.923 106.539 202.796C106.518 202.791 106.499 202.78 106.484 202.765C106.469 202.75 106.46 202.73 106.457 202.71C106.453 202.689 106.457 202.667 106.468 202.648C106.479 202.63 106.496 202.615 106.516 202.607C106.776 202.486 109.068 201.461 109.643 201.845C109.696 201.877 109.738 201.924 109.765 201.978C109.793 202.033 109.804 202.094 109.797 202.154C109.793 202.266 109.762 202.376 109.708 202.475C109.653 202.574 109.577 202.66 109.483 202.727C109.117 202.941 108.69 203.039 108.263 203.007V203.007ZM106.901 202.664C107.582 202.784 108.837 202.944 109.359 202.566C109.427 202.517 109.483 202.453 109.522 202.38C109.561 202.306 109.582 202.225 109.584 202.143C109.584 202.062 109.584 202.028 109.53 202.011C109.222 201.799 107.866 202.257 106.919 202.664H106.901Z" fill="#90CAF9"/>
<path d="M106.581 202.801C106.557 202.806 106.533 202.806 106.51 202.801C106.5 202.785 106.495 202.767 106.495 202.749C106.495 202.731 106.5 202.713 106.51 202.698C106.51 202.606 107.049 200.407 108.287 200.561C108.6 200.596 108.683 200.745 108.701 200.865C108.778 201.438 107.333 202.543 106.64 202.812L106.581 202.801ZM108.15 200.733C107.357 200.733 106.895 202.005 106.741 202.515C107.487 202.137 108.518 201.226 108.47 200.865C108.47 200.865 108.47 200.762 108.239 200.739L108.15 200.733Z" fill="#90CAF9"/>
<path d="M126.15 49.4578L127.133 49.0454C127.133 49.0454 126.712 49.8873 126.15 49.4578Z" fill="#263238"/>
<path d="M160.484 40.6946L224.764 49.6293C225.072 49.6721 225.368 49.7731 225.636 49.9267C225.904 50.0803 226.137 50.2833 226.324 50.5243C226.51 50.7652 226.646 51.0393 226.723 51.3309C226.799 51.6225 226.816 51.9259 226.772 52.2237L203.62 207.898C203.575 208.196 203.471 208.482 203.312 208.741C203.153 209 202.943 209.226 202.694 209.406C202.445 209.587 202.162 209.718 201.86 209.792C201.558 209.866 201.245 209.883 200.937 209.84L136.692 200.934C136.384 200.891 136.088 200.79 135.82 200.636C135.553 200.483 135.319 200.28 135.133 200.039C134.946 199.798 134.811 199.524 134.734 199.232C134.657 198.94 134.64 198.637 134.685 198.339L157.825 42.6362C157.914 42.0392 158.244 41.5004 158.742 41.1369C159.24 40.7734 159.866 40.6145 160.484 40.6946V40.6946Z" fill="#90CAF9"/>
<path opacity="0.2" d="M160.484 40.6946L224.764 49.6293C225.072 49.6721 225.368 49.7731 225.636 49.9267C225.904 50.0803 226.137 50.2833 226.324 50.5243C226.51 50.7652 226.646 51.0393 226.723 51.3309C226.799 51.6225 226.816 51.9259 226.772 52.2237L203.62 207.898C203.575 208.196 203.471 208.482 203.312 208.741C203.153 209 202.943 209.226 202.694 209.406C202.445 209.587 202.162 209.718 201.86 209.792C201.558 209.866 201.245 209.883 200.937 209.84L136.692 200.934C136.384 200.891 136.088 200.79 135.82 200.636C135.553 200.483 135.319 200.28 135.133 200.039C134.946 199.798 134.811 199.524 134.734 199.232C134.657 198.94 134.64 198.637 134.685 198.339L157.825 42.6362C157.914 42.0392 158.244 41.5004 158.742 41.1369C159.24 40.7734 159.866 40.6145 160.484 40.6946V40.6946Z" fill="black"/>
<path opacity="0.3" d="M224.462 49.5891L224.764 49.6292C225.072 49.672 225.368 49.7731 225.636 49.9267C225.904 50.0802 226.137 50.2833 226.324 50.5242C226.51 50.7652 226.646 51.0393 226.723 51.3309C226.8 51.6225 226.816 51.9258 226.772 52.2237L203.62 207.898C203.576 208.196 203.471 208.482 203.312 208.741C203.153 209 202.943 209.226 202.694 209.406C202.445 209.587 202.162 209.718 201.86 209.792C201.559 209.866 201.245 209.883 200.937 209.84L200.635 209.8C200.327 209.757 200.03 209.656 199.763 209.502C199.495 209.348 199.261 209.145 199.075 208.905C198.889 208.664 198.753 208.389 198.676 208.098C198.599 207.806 198.582 207.503 198.627 207.205L221.779 51.5421C221.822 51.2433 221.925 50.9555 222.084 50.6954C222.242 50.4353 222.452 50.208 222.701 50.0265C222.95 49.8451 223.234 49.713 223.536 49.6379C223.839 49.5629 224.153 49.5463 224.462 49.5891V49.5891Z" fill="black"/>
<path d="M224.331 52.5245L162.84 44.1157L140.387 197.649L201.878 206.058L224.331 52.5245Z" fill="white"/>
<path opacity="0.2" d="M162.628 44.4287L222.448 52.7391L199.764 205.361L139.814 197.938L162.628 44.4287Z" fill="#90CAF9"/>
<path d="M162.628 44.4287L221.246 50.6944L198.431 204.204L139.814 197.938L162.628 44.4287Z" fill="white"/>
<path opacity="0.2" d="M162.628 44.4287L219.623 50.471L196.418 203.213L139.814 197.938L162.628 44.4287Z" fill="#90CAF9"/>
<path d="M162.628 44.4287L219.049 49.6578L195.654 202.4L139.814 197.938L162.628 44.4287Z" fill="white"/>
<path opacity="0.2" d="M162.628 44.4287L216.757 49.4458L193.788 201.432L139.814 197.938L162.628 44.4287Z" fill="#90CAF9"/>
<path d="M162.628 44.4287L215.003 48.8158L191.774 200.819L139.814 197.938L162.628 44.4287Z" fill="white"/>
<path opacity="0.2" d="M162.628 44.4287L211.242 48.5008L188.007 200.607L139.814 197.938L162.628 44.4287Z" fill="#90CAF9"/>
<path d="M174.786 38.9143L174.743 39.52L178.632 39.7763L178.674 39.1707L174.786 38.9143Z" fill="#90CAF9"/>
<path d="M182.392 39.4158L182.349 40.0215L193.836 40.7788L193.879 40.1731L182.392 39.4158Z" fill="#90CAF9"/>
<path d="M206.859 43.1575L155.509 39.7784C154.663 39.7252 153.828 39.9821 153.169 40.498C152.511 41.0139 152.077 41.7508 151.955 42.5618L129.093 196.335C129.028 196.778 129.058 197.23 129.181 197.661C129.304 198.093 129.518 198.496 129.809 198.844C130.1 199.192 130.463 199.479 130.874 199.686C131.284 199.892 131.735 200.015 132.197 200.046L183.547 203.431C184.394 203.484 185.23 203.226 185.889 202.709C186.548 202.192 186.98 201.454 187.101 200.642L209.957 46.8745C210.022 46.4313 209.993 45.9798 209.87 45.548C209.747 45.1163 209.534 44.7137 209.243 44.365C208.953 44.0164 208.591 43.7293 208.181 43.5216C207.771 43.3138 207.321 43.1899 206.859 43.1575V43.1575Z" fill="#90CAF9"/>
<path opacity="0.2" d="M179.893 198.683H179.751L134.092 195.676C133.803 195.656 133.52 195.578 133.262 195.448C133.005 195.318 132.777 195.138 132.595 194.92C132.412 194.701 132.277 194.448 132.2 194.178C132.122 193.907 132.103 193.623 132.144 193.345L154.188 45.0359C154.27 44.531 154.545 44.0742 154.959 43.756C155.372 43.4378 155.894 43.2814 156.421 43.3177L202.08 46.3245C202.371 46.3429 202.654 46.4192 202.913 46.5488C203.171 46.6784 203.399 46.8583 203.582 47.0773C203.765 47.2963 203.899 47.5496 203.976 47.8212C204.053 48.0928 204.071 48.3769 204.029 48.6555L181.99 196.924C181.916 197.412 181.664 197.857 181.279 198.18C180.894 198.503 180.403 198.681 179.893 198.683V198.683ZM156.279 43.8847C155.923 43.8864 155.578 44.0115 155.309 44.2374C155.04 44.4633 154.863 44.775 154.81 45.116L132.766 193.454C132.739 193.649 132.753 193.849 132.808 194.039C132.864 194.229 132.958 194.406 133.087 194.56C133.216 194.713 133.376 194.839 133.557 194.931C133.738 195.022 133.936 195.077 134.14 195.092L179.793 198.099C180.167 198.12 180.535 198.005 180.827 197.778C181.118 197.55 181.311 197.225 181.368 196.867L203.407 48.5639C203.437 48.3687 203.424 48.1695 203.37 47.9792C203.316 47.7889 203.222 47.6116 203.093 47.4585C202.964 47.3043 202.805 47.1774 202.623 47.0858C202.442 46.9941 202.243 46.9397 202.038 46.9259L156.38 43.919L156.279 43.8847Z" fill="white"/>
</svg>
